<?xml version="1.0" standalone="no"?>
<!DOCTYPE svg PUBLIC "-//W3C//DTD SVG 20010904//EN"
 "http://www.w3.org/TR/2001/REC-SVG-20010904/DTD/svg10.dtd">
<svg version="1.0" xmlns="http://www.w3.org/2000/svg"
 width="45.000000pt" height="45.000000pt" viewBox="0 0 45.000000 45.000000"
 preserveAspectRatio="xMidYMid meet">
<metadata>
Created by potrace 1.16, written by Peter Selinger 2001-2019
</metadata>
<g transform="translate(0.000000,45.000000) scale(0.004395,-0.004395)"
fill="#000000" stroke="none">
<path d="M0 5120 l0 -5120 5120 0 5120 0 0 5120 0 5120 -5120 0 -5120 0 0
-5120z m7324 3942 c86 -25 209 -83 244 -115 17 -16 22 -31 22 -71 l0 -50 -103
-100 c-57 -56 -116 -123 -132 -151 -28 -46 -30 -58 -35 -186 -5 -143 -5 -142
-64 -207 -47 -51 -96 -72 -166 -72 -33 0 -60 4 -60 9 0 6 -21 11 -47 13 l-48
3 -3 56 -3 57 51 7 50 7 2 41 c2 67 -2 89 -26 142 -38 85 -144 158 -268 187
-41 10 -340 13 -1283 13 l-1230 0 -79 -22 c-175 -50 -301 -134 -461 -306 -89
-96 -91 -97 -136 -97 -30 0 -55 -6 -69 -18 l-23 -18 28 -22 c16 -13 33 -19 41
-14 7 4 58 50 112 102 146 141 178 167 277 216 184 91 281 97 1589 90 989 -5
1039 -6 1079 -24 23 -11 56 -34 72 -51 28 -30 30 -39 34 -116 3 -83 2 -85 -28
-115 l-30 -31 -1018 5 c-1299 6 -1203 7 -1308 -9 -290 -45 -490 -153 -730
-390 -121 -120 -564 -595 -637 -683 -52 -64 -64 -102 -44 -144 15 -30 270
-342 424 -518 110 -124 293 -309 362 -364 202 -161 404 -252 655 -296 173 -30
185 -40 185 -163 0 -147 -27 -167 -225 -167 l-136 0 17 -32 c13 -26 15 -53 12
-152 -6 -154 -21 -186 -85 -186 -32 0 -43 -4 -43 -15 0 -8 -7 -15 -15 -15 -8
0 -15 -4 -15 -10 0 -5 -25 -10 -55 -10 -30 0 -55 4 -55 8 0 5 -17 14 -37 21
-71 21 -78 42 -81 246 l-4 179 -34 38 -34 38 0 -300 0 -300 35 0 c48 0 91 -24
110 -60 22 -43 20 -203 -4 -255 -43 -95 -165 -163 -310 -172 -82 -6 -83 -6
-55 -21 87 -44 114 -99 114 -234 0 -120 -16 -162 -71 -190 -40 -21 -128 -24
-151 -6 -9 7 -27 32 -41 54 -29 47 -76 79 -127 89 -41 7 -133 -33 -190 -84
-24 -21 -45 -31 -68 -31 l-34 0 7 -62 c11 -93 60 -148 132 -148 52 0 102 -20
123 -49 18 -27 20 -44 20 -205 l0 -176 -67 0 c-38 0 -86 7 -108 14 l-40 14 -3
-54 -3 -54 -54 0 c-80 0 -85 4 -85 66 l0 54 43 1 42 0 -45 23 c-25 12 -57 30
-72 40 l-28 18 0 -36 0 -36 -55 0 c-30 0 -55 5 -55 10 0 6 -7 10 -15 10 -8 0
-15 4 -15 8 0 4 -18 27 -40 51 -33 35 -40 50 -40 82 0 35 -3 39 -25 39 -20 0
-25 5 -25 25 0 14 -4 25 -10 25 -5 0 -10 6 -10 14 0 7 -7 27 -15 42 -41 79
-40 45 -40 2404 0 2139 1 2269 18 2330 78 286 288 479 592 544 11 2 956 3
2100 2 l2080 -1 79 -23z m817 -439 c74 -69 153 -148 222 -221 l67 -72 0 -75
c0 -53 -4 -75 -12 -76 -10 0 -10 -2 0 -6 18 -7 15 -106 -5 -148 -12 -25 -23
-35 -40 -35 -16 0 -23 -6 -23 -20 0 -28 -30 -60 -57 -60 -19 0 -23 -5 -23 -30
0 -16 -4 -30 -9 -30 -5 0 -13 -9 -16 -20 -3 -11 -12 -20 -20 -20 -7 0 -15 -9
-18 -19 -3 -14 -17 -21 -51 -26 -45 -7 -46 -8 -46 -45 0 -32 -4 -39 -22 -42
-17 -2 -24 -11 -26 -30 -2 -16 -9 -28 -18 -28 -8 0 -14 -4 -14 -10 0 -5 -6
-10 -13 -10 -7 0 -18 -14 -24 -31 -7 -17 -21 -33 -32 -36 -12 -3 -21 -12 -21
-19 0 -8 -7 -14 -15 -14 -8 0 -15 -6 -15 -13 0 -7 -18 -29 -40 -48 -22 -19
-40 -37 -40 -42 0 -12 -56 -67 -69 -67 -6 0 -11 -5 -11 -10 0 -14 -94 -110
-108 -110 -7 0 -12 -7 -12 -15 0 -9 -7 -18 -15 -21 -8 -4 -15 -10 -15 -16 0
-13 -26 -38 -39 -38 -6 0 -11 -4 -11 -10 0 -5 -9 -10 -20 -10 -15 0 -20 -7
-20 -25 0 -18 -5 -25 -20 -25 -13 0 -20 -7 -20 -20 0 -11 -6 -20 -14 -20 -7 0
-16 -9 -19 -21 -3 -11 -15 -23 -26 -26 -12 -3 -21 -11 -21 -17 0 -6 -9 -18
-20 -26 -11 -8 -20 -20 -20 -27 0 -7 -8 -13 -17 -13 -10 0 -25 -15 -34 -33 -8
-17 -25 -36 -37 -42 -12 -5 -22 -14 -22 -19 0 -5 -25 -33 -55 -62 -30 -30 -55
-57 -55 -60 0 -10 -50 -54 -61 -54 -5 0 -9 -6 -9 -13 0 -21 -86 -97 -109 -97
-16 0 -21 -6 -21 -25 0 -16 -6 -25 -15 -25 -8 0 -15 -7 -15 -15 0 -8 -9 -24
-20 -35 -11 -11 -27 -20 -35 -20 -8 0 -15 -9 -15 -20 0 -11 -6 -20 -14 -20 -7
0 -16 -9 -19 -21 -3 -11 -15 -23 -26 -26 -12 -3 -21 -12 -21 -19 0 -8 -4 -14
-8 -14 -5 0 -15 -11 -22 -25 -7 -14 -22 -25 -32 -25 -11 0 -18 -7 -18 -19 0
-26 -53 -81 -78 -81 -11 0 -36 -7 -55 -15 -48 -20 -120 -19 -160 1 -41 22
-414 380 -433 416 -17 33 -18 164 -1 194 16 28 1891 1914 1926 1936 20 14 48
18 129 18 l103 0 40 -37z m-3344 -519 c105 -15 224 -54 251 -81 7 -7 20 -13
29 -13 19 0 81 -36 106 -62 10 -10 23 -18 30 -18 7 1 -3 13 -20 29 -29 24 -33
33 -33 80 l0 52 738 -3 c821 -3 768 1 813 -71 16 -27 19 -47 17 -130 l-3 -99
-590 -2 c-324 -2 -621 -7 -658 -11 l-68 -8 19 -21 c64 -71 168 -270 183 -350
6 -28 14 -71 19 -96 15 -74 12 -150 -5 -156 -8 -4 -15 -12 -15 -20 0 -8 -10
-14 -23 -14 -23 0 -24 -3 -35 -147 -10 -128 -22 -194 -48 -275 -5 -16 1 -18
40 -18 l46 0 0 -49 c0 -76 -4 -81 -65 -81 -33 0 -55 5 -58 13 -4 9 -8 8 -16
-3 -9 -12 -4 -16 24 -18 35 -3 35 -4 35 -52 0 -61 -7 -80 -31 -80 -14 0 -19
-7 -19 -30 0 -28 -2 -30 -40 -30 l-40 0 0 -45 c0 -33 -4 -45 -15 -45 -8 0 -15
-7 -15 -15 0 -11 -12 -15 -45 -15 -45 0 -45 0 -45 -35 0 -33 -2 -35 -35 -35
-32 0 -35 -2 -35 -30 0 -30 -1 -30 -55 -30 -43 0 -55 3 -55 16 0 9 -7 14 -17
12 -14 -2 -19 -15 -21 -56 l-3 -52 -35 0 c-22 0 -34 -5 -34 -14 0 -14 -60 -26
-131 -26 -35 0 -39 3 -39 25 0 14 -4 25 -10 25 -5 0 -10 -20 -10 -45 l0 -45
-55 0 -55 0 0 34 0 35 -145 3 -145 3 0 -24 0 -24 -92 7 c-51 4 -94 11 -96 16
-2 6 -17 10 -33 10 -16 0 -29 5 -29 10 0 6 -14 10 -31 10 -34 0 -129 38 -129
51 0 5 -7 9 -16 9 -14 0 -68 32 -84 50 -3 3 -23 17 -45 32 -49 34 -171 156
-260 263 -37 44 -133 159 -214 255 -285 340 -271 321 -271 383 l0 54 143 155
c192 208 280 308 359 404 228 277 429 395 758 447 70 11 359 6 457 -9z m2949
-1432 c12 -10 26 -27 33 -39 8 -16 11 -353 11 -1282 l0 -1261 -30 0 c-28 0
-30 -2 -30 -40 0 -28 -4 -40 -14 -40 -9 0 -17 -16 -21 -42 -4 -24 -16 -65 -26
-91 -23 -58 -24 -67 -3 -67 15 0 16 -10 10 -90 -8 -102 -12 -120 -32 -120 -8
0 -14 -7 -14 -15 0 -8 -9 -15 -20 -15 -15 0 -20 -7 -20 -25 0 -24 -3 -25 -55
-25 l-55 0 0 40 0 41 -59 -40 c-32 -22 -79 -48 -102 -57 -57 -22 -70 -34 -36
-34 26 0 27 -2 27 -55 0 -52 -1 -55 -25 -55 -14 0 -25 -4 -25 -10 0 -5 -25
-10 -55 -10 l-55 0 0 58 0 58 -67 -7 c-38 -5 -638 -8 -1335 -8 -1235 -1 -1268
-1 -1268 -20 0 -22 -26 -31 -92 -31 l-48 0 0 55 c0 42 3 55 15 55 8 0 15 8 15
18 0 9 50 67 110 127 l110 110 1243 0 c1183 0 1244 1 1291 19 132 49 241 164
289 305 l22 66 3 964 c3 886 2 962 -13 947 -9 -9 -20 -16 -24 -16 -5 0 -11
-12 -14 -27 -3 -16 -25 -47 -48 -70 -40 -42 -43 -43 -105 -43 -56 0 -68 -4
-95 -28 l-32 -29 22 -20 c18 -16 39 -21 108 -25 82 -4 88 -6 115 -36 27 -31
28 -37 28 -128 0 -87 -2 -97 -25 -119 l-24 -25 -264 0 c-250 0 -266 -1 -288
-20 l-24 -20 24 -20 c21 -18 38 -20 210 -20 159 0 192 -3 227 -19 48 -22 100
-82 115 -131 7 -23 9 -238 7 -615 l-3 -580 -24 -52 c-27 -60 -84 -117 -145
-143 -38 -17 -95 -18 -744 -22 -616 -3 -704 -1 -712 12 -5 8 -10 52 -10 97 0
74 2 84 25 107 31 32 31 44 0 79 -33 35 -49 34 -86 -3 -29 -28 -29 -30 -14
-60 8 -16 20 -30 26 -30 6 0 9 -38 7 -102 l-3 -103 -184 -3 c-197 -3 -201 -2
-201 47 l0 25 -27 -26 c-41 -40 -74 -48 -184 -48 -93 0 -102 2 -124 25 -21 20
-25 34 -25 87 l0 63 216 210 c243 236 291 275 366 302 72 25 302 25 367 0 24
-9 44 -17 45 -17 2 0 -9 33 -23 73 -22 63 -25 89 -26 207 0 159 14 214 76 283
60 69 106 87 222 87 110 0 147 -11 192 -60 63 -68 76 -70 360 -70 219 0 259 2
280 16 29 19 32 36 9 55 -13 10 -68 15 -213 19 -217 6 -237 11 -297 76 -55 59
-64 90 -64 221 0 116 1 120 31 169 17 27 163 182 324 344 161 162 391 396 511
519 121 123 228 227 239 232 11 4 61 8 110 8 72 0 94 -3 111 -17z m-1848 -524
c70 -67 133 -128 140 -137 7 -9 12 -45 12 -93 l0 -78 56 0 56 0 -4 -60 c-1
-33 0 -60 5 -60 4 0 7 -26 7 -58 0 -66 -20 -92 -70 -92 -28 0 -30 -2 -30 -40
0 -33 -3 -40 -20 -40 -11 0 -20 -5 -20 -11 0 -22 -30 -39 -69 -39 l-41 0 0
-50 c0 -47 -2 -50 -25 -50 -20 0 -25 -5 -25 -25 0 -18 -5 -25 -20 -25 -13 0
-20 -7 -20 -20 0 -11 -4 -20 -10 -20 -5 0 -10 -7 -10 -15 0 -9 -12 -18 -30
-21 -21 -5 -30 -12 -30 -25 0 -16 -8 -19 -55 -19 l-55 0 0 55 c0 48 2 55 20
55 13 0 20 7 20 19 0 11 9 23 20 26 11 3 20 13 20 21 0 8 9 14 20 14 13 0 20
7 20 20 0 15 7 20 25 20 20 0 25 5 25 25 0 23 4 25 48 26 26 0 41 3 35 6 -8 3
-13 25 -13 59 l0 54 40 0 c39 0 40 1 40 35 0 33 2 35 34 35 32 0 35 2 40 40 3
22 9 58 12 80 l6 40 -52 0 c-46 0 -57 -5 -101 -42 -32 -27 -49 -49 -49 -64 0
-16 -7 -24 -22 -26 -19 -2 -24 -12 -31 -55 -8 -52 -9 -53 -43 -53 -33 0 -34
-1 -34 -39 0 -39 -1 -40 -37 -43 -36 -3 -38 -5 -41 -40 -3 -35 -5 -37 -40 -40
-30 -2 -38 -8 -40 -25 -3 -17 -10 -23 -28 -23 -17 0 -24 -5 -24 -20 0 -11 -7
-20 -15 -20 -10 0 -15 -11 -15 -35 0 -34 -1 -35 -40 -35 l-40 0 0 -40 c0 -39
-1 -40 -35 -40 -31 0 -37 -4 -52 -40 -13 -29 -25 -41 -45 -45 -19 -5 -28 -13
-28 -27 0 -28 -24 -48 -56 -48 -19 0 -41 -12 -66 -37 -31 -30 -38 -44 -38 -74
0 -37 -1 -38 -42 -41 -40 -3 -42 -4 -52 -48 -9 -38 -15 -45 -38 -48 -24 -3
-28 -8 -28 -37 0 -31 -3 -34 -40 -40 -41 -7 -57 -35 -20 -35 11 0 20 -7 20
-15 0 -12 13 -15 60 -15 43 0 60 4 60 13 0 17 46 57 65 57 11 0 15 11 15 40
l0 40 40 0 c33 0 40 3 40 20 0 13 7 20 20 20 13 0 20 7 20 20 0 18 7 20 55 20
l55 0 0 -55 c0 -48 -2 -55 -20 -55 -13 0 -20 -7 -20 -20 0 -13 -7 -20 -20 -20
-11 0 -20 -7 -20 -15 0 -20 -45 -65 -65 -65 -8 0 -15 -7 -15 -15 0 -19 -40
-65 -57 -65 -7 0 -13 -7 -13 -15 0 -8 -7 -15 -15 -15 -8 0 -15 -7 -15 -15 0
-35 -38 -59 -100 -63 -75 -6 -100 12 -100 70 0 38 0 38 -40 38 -38 0 -40 2
-40 30 0 28 -3 30 -35 30 -24 0 -35 5 -35 15 0 8 -9 15 -19 15 -11 0 -83 63
-175 154 l-156 154 0 58 0 59 178 180 c721 733 999 1012 1021 1027 20 14 47
18 124 18 l99 0 126 -122z m-308 -1083 l0 -55 -40 0 -40 0 0 -40 0 -40 -55 0
-55 0 0 55 0 55 40 0 40 0 0 40 0 40 55 0 55 0 0 -55z m-1145 -476 l125 -121
0 -53 c0 -45 -4 -55 -30 -78 -37 -33 -38 -47 -5 -47 16 0 25 6 25 15 0 12 13
15 55 15 l55 0 0 -55 0 -55 -55 0 c-42 0 -55 -3 -55 -15 0 -12 -13 -15 -55
-15 -48 0 -55 2 -55 20 0 15 -7 20 -25 20 -17 0 -29 7 -35 23 -7 17 -9 9 -9
-35 l-1 -58 -35 0 c-24 0 -35 -5 -35 -15 0 -8 -7 -15 -15 -15 -10 0 -15 -11
-15 -35 0 -18 -5 -57 -11 -85 -10 -47 -12 -50 -43 -50 -36 0 -56 -15 -56 -42
0 -14 8 -18 34 -18 19 0 41 -3 50 -6 13 -5 16 1 16 34 0 31 4 41 20 45 16 4
20 14 20 46 l0 41 56 0 57 0 -7 -92 c-3 -51 -11 -94 -16 -96 -6 -2 -10 -15
-10 -28 0 -22 -4 -24 -45 -24 -41 0 -45 -2 -45 -25 0 -24 -2 -25 -75 -25 l-75
0 0 -37 c0 -37 -3 -40 -75 -81 -42 -23 -89 -45 -105 -49 -17 -3 -30 -9 -30
-14 0 -5 -24 -9 -54 -9 -72 0 -86 -6 -86 -40 0 -24 -6 -30 -37 -40 -21 -7 -49
-22 -63 -35 -51 -45 -74 -55 -127 -55 l-53 0 0 50 c0 48 57 227 239 750 l57
165 50 25 c128 65 192 90 229 90 30 0 36 3 27 12 -7 7 -12 37 -12 68 0 51 4
59 41 103 41 47 41 47 105 47 l63 0 126 -121z m-1264 -1702 c52 -34 69 -78 69
-175 0 -85 -7 -110 -43 -149 -18 -20 -18 -23 -4 -23 16 0 17 -33 17 -410 l0
-410 -352 2 -353 3 -32 75 -32 75 -164 3 -164 2 -30 -77 -30 -78 -187 -3 -186
-2 0 55 c0 59 -18 16 330 803 l103 232 167 0 168 0 42 -97 c68 -158 299 -690
339 -783 l36 -85 3 348 c2 314 4 347 19 347 15 0 15 1 0 18 -51 57 -64 195
-24 272 32 63 70 80 183 80 78 0 96 -3 125 -23z m3119 -147 l0 -99 123 -3 122
-3 3 -140 c4 -201 15 -185 -129 -185 l-121 0 4 -115 c2 -88 7 -118 19 -130 18
-18 21 -18 137 -9 l82 7 0 -161 0 -161 -37 -8 c-21 -4 -106 -8 -189 -8 l-152
0 -68 35 c-65 33 -71 39 -104 104 l-35 69 -3 188 -4 188 -93 3 -93 3 -4 -145
c-3 -141 -4 -147 -36 -212 -61 -125 -175 -215 -312 -249 -70 -17 -269 -17
-340 0 -165 40 -303 175 -339 332 -16 68 -13 243 5 313 37 147 153 266 302
313 83 25 322 25 411 -1 133 -40 244 -146 288 -275 l22 -66 3 155 3 155 93 3
92 3 0 99 0 100 175 0 175 0 0 -100z m-2345 54 c5 -6 89 -106 185 -220 l175
-208 3 222 2 222 168 0 167 0 -2 -523 c-1 -287 -2 -532 -2 -544 -1 -23 -2 -23
-149 -23 l-148 0 -75 87 c-41 48 -122 145 -181 216 l-108 129 0 -216 0 -216
-170 0 -170 0 0 551 0 551 147 -8 c99 -5 151 -11 158 -20z m4172 -119 c46 -8
108 -30 153 -52 l75 -38 3 -60 c3 -59 1 -63 -53 -143 -30 -46 -55 -86 -55 -90
1 -4 18 -19 40 -34 22 -15 50 -47 62 -70 20 -38 23 -57 22 -153 0 -90 -4 -119
-21 -156 -28 -62 -95 -124 -163 -152 -50 -20 -72 -22 -230 -22 -158 0 -182 2
-248 24 -41 13 -100 41 -133 62 l-59 39 0 59 c0 59 1 62 61 133 33 40 67 75
75 78 10 4 6 11 -15 23 -18 10 -41 40 -58 75 -25 51 -28 68 -28 157 0 89 3
106 28 157 41 84 107 132 220 163 69 18 226 19 324 0z m-832 -34 c118 -58 206
-168 234 -292 6 -24 11 -103 11 -176 l0 -132 -76 -3 -76 -3 46 -33 c46 -33 46
-34 46 -92 0 -57 -1 -59 -47 -97 -114 -94 -188 -118 -358 -117 -201 1 -292 31
-397 132 -38 36 -70 79 -90 121 -30 62 -32 74 -36 202 -5 157 10 232 61 318
56 93 165 176 264 201 21 5 108 8 193 7 155 -2 156 -2 225 -36z m-4055 -1213
c45 -23 45 -23 48 -80 2 -32 7 -58 12 -58 6 0 10 -54 10 -128 0 -144 -3 -151
-77 -178 -46 -16 -193 -18 -248 -3 -51 14 -110 73 -124 124 -14 51 -14 159 0
208 14 51 64 104 114 122 23 8 79 14 130 15 75 0 99 -4 135 -22z m766 -25 l44
-48 0 32 c0 48 22 63 93 63 34 0 69 -5 77 -10 12 -8 16 -46 18 -224 l3 -215
-26 -17 c-19 -12 -40 -15 -87 -12 -57 4 -63 7 -98 48 l-37 43 -6 -40 c-8 -47
-18 -53 -93 -53 -98 0 -94 -11 -94 240 0 252 -5 239 99 240 63 0 63 0 107 -47z
m642 41 c21 -6 22 -12 22 -90 0 -49 -4 -84 -10 -84 -17 0 -12 -106 5 -120 10
-9 15 -32 15 -75 0 -101 12 -95 -186 -95 -161 0 -174 1 -184 19 -11 21 -14
303 -4 388 l7 52 106 4 c58 1 129 4 156 5 28 1 60 -1 73 -4z m839 -2 c7 -4 46
-80 88 -169 73 -154 76 -163 73 -224 l-3 -64 -85 0 -85 0 -24 38 c-34 51 -68
51 -96 -1 l-20 -37 -85 0 -85 0 -3 65 c-2 62 1 72 68 215 38 83 77 158 85 168
12 13 31 17 87 17 40 0 78 -4 85 -8z m794 -2 c18 -10 19 -23 19 -227 0 -250 3
-242 -97 -243 -95 0 -93 -5 -93 240 0 245 -2 240 91 240 33 0 69 -5 80 -10z
m469 -12 c79 -40 116 -122 108 -243 -7 -109 -47 -173 -125 -201 -46 -16 -193
-18 -248 -3 -110 30 -165 184 -120 335 29 98 93 133 240 134 85 0 108 -4 145
-22z m360 -12 c17 -18 37 -42 45 -52 13 -17 14 -15 15 23 0 31 5 45 19 53 22
11 130 13 147 2 8 -5 13 -75 15 -225 5 -254 7 -247 -95 -247 -58 0 -60 1 -101
46 l-42 46 -7 -36 c-8 -44 -29 -56 -98 -56 -95 0 -94 -5 -89 242 2 125 7 218
13 226 7 7 36 12 79 12 65 0 70 -2 99 -34z m-3370 -61 c0 -50 -4 -85 -10 -85
-17 0 -12 -106 5 -120 12 -10 15 -30 13 -89 l-3 -76 -182 -3 -183 -2 0 230 0
230 180 0 180 0 0 -85z m1329 72 c47 -24 66 -62 69 -146 3 -53 -1 -88 -11
-113 -9 -22 -12 -41 -6 -49 5 -8 9 -42 9 -76 l0 -62 -36 -7 c-60 -11 -136 1
-155 25 -17 21 -18 21 -24 1 -6 -18 -15 -20 -90 -20 -66 0 -84 3 -89 16 -8 21
-8 429 1 437 12 13 306 7 332 -6z m995 -3 c10 -25 7 -124 -4 -145 -8 -15 -22
-19 -60 -19 l-50 0 0 -127 c0 -71 -4 -135 -9 -142 -12 -19 -130 -28 -160 -12
-20 11 -21 19 -21 146 l0 135 -48 0 c-26 0 -53 5 -60 12 -12 12 -17 124 -6
152 5 14 33 16 209 16 176 0 204 -2 209 -16z"/>
<path d="M3385 8643 c-113 -15 -248 -80 -325 -156 -112 -112 -130 -176 -130
-459 0 -162 3 -208 14 -224 15 -19 15 -19 30 1 12 16 15 53 16 189 0 98 5 185
12 207 11 39 12 39 62 39 28 0 58 -5 66 -10 10 -6 19 -4 30 8 8 10 44 51 80
92 96 112 209 227 263 268 26 20 47 40 47 44 0 8 -108 9 -165 1z"/>
<path d="M2930 5793 c0 -685 5 -742 54 -671 14 20 16 89 15 563 -1 602 -5 690
-34 711 -10 8 -22 14 -27 14 -4 0 -8 -278 -8 -617z"/>
<path d="M3340 5473 c0 -320 4 -491 11 -510 l11 -28 24 28 24 28 0 428 c0 236
-3 443 -6 460 -4 17 -12 31 -20 31 -7 0 -20 10 -28 22 -15 20 -16 -20 -16
-459z"/>
<path d="M7196 7455 c-540 -547 -560 -565 -596 -565 -39 0 -90 -31 -90 -54 0
-16 32 -46 49 -46 15 0 1064 1042 1106 1099 17 22 38 41 48 41 24 0 92 64 83
78 -4 7 -15 12 -24 12 -10 0 -269 -254 -576 -565z"/>
<path d="M4475 7759 c-335 -49 -611 -320 -665 -656 -34 -207 66 -446 265 -635
48 -45 217 -132 300 -154 414 -109 855 196 914 632 23 167 -47 396 -167 543
-150 183 -432 301 -647 270z m247 -160 c77 -16 172 -62 229 -110 58 -49 127
-143 157 -216 66 -158 44 -445 -45 -586 -76 -121 -215 -214 -355 -237 -107
-18 -307 -8 -385 20 -122 43 -228 127 -291 232 -58 97 -75 160 -80 298 -7 204
31 320 144 440 71 75 153 124 254 151 77 21 289 25 372 8z"/>
<path d="M4523 7282 c-10 -6 -10 -17 -3 -42 13 -45 13 -125 0 -172 -14 -49
-80 -108 -123 -109 -17 -1 -42 -4 -55 -7 l-23 -7 31 -42 c33 -44 104 -94 161
-112 42 -14 102 1 167 42 81 52 141 169 121 239 -33 123 -207 254 -276 210z"/>
<path d="M6263 4699 c-46 -14 -59 -42 -31 -69 21 -19 33 -20 365 -20 277 0
350 3 378 14 42 18 45 39 8 63 -24 16 -60 18 -358 20 -187 1 -344 -2 -362 -8z"/>
<path d="M6065 4272 c3 -26 9 -57 12 -70 l5 -23 443 3 c420 3 444 4 464 22 20
18 20 20 4 38 -32 36 -84 40 -467 37 -365 -3 -372 -3 -420 19 l-48 22 7 -48z"/>
<path d="M5178 2327 c-71 -43 -108 -113 -89 -170 14 -42 64 -91 114 -112 35
-14 41 -14 80 3 47 21 103 79 113 117 13 53 -28 126 -91 162 -51 29 -81 29
-127 0z"/>
</g>
</svg>
