<?xml version="1.0" encoding="UTF-8"?>
<!DOCTYPE svg PUBLIC "-//W3C//DTD SVG 1.1//EN" "http://www.w3.org/Graphics/SVG/1.1/DTD/svg11.dtd">
<svg xmlns="http://www.w3.org/2000/svg" version="1.1" width="1024px" height="1024px" style="shape-rendering:geometricPrecision; text-rendering:geometricPrecision; image-rendering:optimizeQuality; fill-rule:evenodd; clip-rule:evenodd" xmlns:xlink="http://www.w3.org/1999/xlink">
<g><path style="opacity:1" fill="#f2f5f7" d="M -0.5,-0.5 C 340.833,-0.5 682.167,-0.5 1023.5,-0.5C 1023.5,340.833 1023.5,682.167 1023.5,1023.5C 682.167,1023.5 340.833,1023.5 -0.5,1023.5C -0.5,682.167 -0.5,340.833 -0.5,-0.5 Z"/></g>
<g><path style="opacity:1" fill="#48b362" d="M 767.5,183.5 C 769.824,186.804 772.157,190.138 774.5,193.5C 773.49,196.183 772.49,198.849 771.5,201.5C 769.89,203.792 768.224,206.125 766.5,208.5C 766.167,208.5 765.833,208.5 765.5,208.5C 761.827,212.506 758.16,216.506 754.5,220.5C 757.623,225.412 759.623,230.745 760.5,236.5C 756.884,234.555 754.884,231.555 754.5,227.5C 752.876,227.36 751.71,228.027 751,229.5C 750.654,227.782 750.154,226.115 749.5,224.5C 750.592,223.169 751.926,222.336 753.5,222C 752.24,220.186 752.24,218.353 753.5,216.5C 755.856,214.31 758.356,212.31 761,210.5C 761.837,208.179 762.17,205.845 762,203.5C 761.586,203.043 761.086,202.709 760.5,202.5C 759.571,203.689 759.238,205.022 759.5,206.5C 755.466,206.505 751.466,206.838 747.5,207.5C 747.466,204.801 748.133,202.301 749.5,200C 748.338,199.173 747.171,198.34 746,197.5C 742.796,199.581 739.796,201.914 737,204.5C 734.5,204 732,203.5 729.5,203C 726.899,199.75 723.733,198.916 720,200.5C 719.51,201.793 719.343,203.127 719.5,204.5C 714.014,204.069 708.681,204.069 703.5,204.5C 703.231,202.571 703.731,200.905 705,199.5C 709.413,200.632 713.913,200.799 718.5,200C 719.337,198.989 719.67,197.822 719.5,196.5C 714.134,196.677 708.8,196.344 703.5,195.5C 698.153,196.504 692.819,197.504 687.5,198.5C 687.5,197.5 687.5,196.5 687.5,195.5C 682.654,197.039 677.654,197.706 672.5,197.5C 689.901,189.897 707.568,189.563 725.5,196.5C 729.271,198.559 732.938,200.892 736.5,203.5C 743.292,197.209 749.959,190.709 756.5,184C 760.229,182.3 763.895,182.133 767.5,183.5 Z"/></g>
<g><path style="opacity:1" fill="#dff8e8" d="M 766.5,208.5 C 768.224,206.125 769.89,203.792 771.5,201.5C 776.929,195.567 776.595,189.734 770.5,184C 769.552,183.517 768.552,183.351 767.5,183.5C 763.895,182.133 760.229,182.3 756.5,184C 749.959,190.709 743.292,197.209 736.5,203.5C 732.938,200.892 729.271,198.559 725.5,196.5C 728.167,196.5 730.833,196.5 733.5,196.5C 733.495,199.318 734.828,200.485 737.5,200C 739.484,197.017 741.817,194.35 744.5,192C 743.852,190.56 743.519,189.06 743.5,187.5C 746.925,185.799 750.591,184.633 754.5,184C 755.167,183 755.833,182 756.5,181C 761.131,180.472 765.631,180.972 770,182.5C 770.333,182.167 770.667,181.833 771,181.5C 776.353,185.578 778.353,190.911 777,197.5C 774.372,200.489 772.039,203.822 770,207.5C 768.989,208.337 767.822,208.67 766.5,208.5 Z"/></g>
<g><path style="opacity:1" fill="#5ea875" d="M 767.5,183.5 C 768.552,183.351 769.552,183.517 770.5,184C 776.595,189.734 776.929,195.567 771.5,201.5C 772.49,198.849 773.49,196.183 774.5,193.5C 772.157,190.138 769.824,186.804 767.5,183.5 Z"/></g>
<g><path style="opacity:1" fill="#dffaeb" d="M 422.5,223.5 C 427.188,213.553 424.355,207.22 414,204.5C 403.53,207.041 400.364,213.374 404.5,223.5C 399.693,216.3 400.693,209.966 407.5,204.5C 412.196,201.921 416.863,201.921 421.5,204.5C 423.856,207.022 426.023,209.688 428,212.5C 428.516,216.128 427.683,219.461 425.5,222.5C 424.675,223.386 423.675,223.719 422.5,223.5 Z"/></g>
<g><path style="opacity:1" fill="#3fb55d" d="M 760.5,236.5 C 760.5,236.833 760.5,237.167 760.5,237.5C 761.274,246.492 761.441,255.492 761,264.5C 759.143,267.937 757.809,271.604 757,275.5C 754.481,278.025 752.314,280.858 750.5,284C 751.333,286.081 751.333,288.248 750.5,290.5C 749.5,290.5 748.5,290.5 747.5,290.5C 747.371,292.216 747.038,293.883 746.5,295.5C 744.22,296.64 741.886,297.807 739.5,299C 738.663,300.011 738.33,301.178 738.5,302.5C 737.5,302.5 736.5,302.5 735.5,302.5C 735.5,303.5 735.5,304.5 735.5,305.5C 732.341,305.481 729.674,306.648 727.5,309C 722.803,309.28 718.137,309.78 713.5,310.5C 711.853,311.278 710.52,312.444 709.5,314C 700.818,315.919 692.152,315.919 683.5,314C 680.116,311.063 676.116,309.729 671.5,310C 666.827,306.991 662.161,303.991 657.5,301C 654.028,295.894 650.194,291.06 646,286.5C 645.661,282.47 643.827,279.47 640.5,277.5C 640.5,277.167 640.5,276.833 640.5,276.5C 639.129,269.232 638.129,261.899 637.5,254.5C 637.89,249.489 638.39,244.489 639,239.5C 641.165,234.21 642.998,228.876 644.5,223.5C 645.738,220.262 647.404,217.262 649.5,214.5C 655.544,208.302 662.21,202.802 669.5,198C 670.448,197.517 671.448,197.351 672.5,197.5C 677.654,197.706 682.654,197.039 687.5,195.5C 687.5,196.5 687.5,197.5 687.5,198.5C 692.819,197.504 698.153,196.504 703.5,195.5C 708.8,196.344 714.134,196.677 719.5,196.5C 719.67,197.822 719.337,198.989 718.5,200C 713.913,200.799 709.413,200.632 705,199.5C 703.731,200.905 703.231,202.571 703.5,204.5C 708.681,204.069 714.014,204.069 719.5,204.5C 719.343,203.127 719.51,201.793 720,200.5C 723.733,198.916 726.899,199.75 729.5,203C 732,203.5 734.5,204 737,204.5C 739.796,201.914 742.796,199.581 746,197.5C 747.171,198.34 748.338,199.173 749.5,200C 748.133,202.301 747.466,204.801 747.5,207.5C 751.466,206.838 755.466,206.505 759.5,206.5C 759.238,205.022 759.571,203.689 760.5,202.5C 761.086,202.709 761.586,203.043 762,203.5C 762.17,205.845 761.837,208.179 761,210.5C 758.356,212.31 755.856,214.31 753.5,216.5C 752.24,218.353 752.24,220.186 753.5,222C 751.926,222.336 750.592,223.169 749.5,224.5C 750.154,226.115 750.654,227.782 751,229.5C 751.71,228.027 752.876,227.36 754.5,227.5C 754.884,231.555 756.884,234.555 760.5,236.5 Z"/></g>
<g><path style="opacity:1" fill="#60b175" d="M 422.5,223.5 C 422.167,223.5 421.833,223.5 421.5,223.5C 418.305,227.087 414.305,228.254 409.5,227C 408.154,225.331 406.487,224.164 404.5,223.5C 400.364,213.374 403.53,207.041 414,204.5C 424.355,207.22 427.188,213.553 422.5,223.5 Z"/></g>
<g><path style="opacity:1" fill="#45bc5e" d="M 421.5,223.5 C 418.77,223.473 416.27,224.14 414,225.5C 411.416,224.351 408.749,223.351 406,222.5C 402.569,213.824 405.236,208.158 414,205.5C 415.498,207.559 417.498,208.892 420,209.5C 422.805,213.861 423.305,218.528 421.5,223.5 Z"/></g>
<g><path style="opacity:1" fill="#def7e6" d="M 787.5,217.5 C 783.487,216.832 781.487,218.499 781.5,222.5C 781.883,227.102 782.883,231.435 784.5,235.5C 785.72,243.982 785.72,252.315 784.5,260.5C 784.793,251.389 783.959,242.389 782,233.5C 779.048,231.266 777.881,228.266 778.5,224.5C 777.673,218.164 780.339,215.33 786.5,216C 787.056,216.383 787.389,216.883 787.5,217.5 Z"/></g>
<g><path style="opacity:1" fill="#53af6f" d="M 720.5,255.5 C 721.833,253.833 723.167,252.167 724.5,250.5C 731.203,244.963 737.037,238.63 742,231.5C 744.213,219.744 739.38,214.244 727.5,215C 724.771,215.566 722.771,217.066 721.5,219.5C 715.915,225.752 709.915,231.752 703.5,237.5C 705.727,233.266 708.727,229.6 712.5,226.5C 713.167,224.167 713.833,221.833 714.5,219.5C 718.217,217.955 721.55,215.788 724.5,213C 733.72,211.195 740.553,214.362 745,222.5C 745.729,226.377 745.562,230.211 744.5,234C 742.481,235.688 740.814,237.688 739.5,240C 738.552,240.483 737.552,240.649 736.5,240.5C 736.5,241.5 736.5,242.5 736.5,243.5C 735.448,243.351 734.448,243.517 733.5,244C 729.572,248.436 725.239,252.269 720.5,255.5 Z"/></g>
<g><path style="opacity:1" fill="#6ab07e" d="M 787.5,217.5 C 788.363,219.421 789.029,221.421 789.5,223.5C 788.141,222.993 787.141,221.993 786.5,220.5C 785.264,219.754 783.93,219.421 782.5,219.5C 783.26,224.82 783.927,230.153 784.5,235.5C 782.883,231.435 781.883,227.102 781.5,222.5C 781.487,218.499 783.487,216.832 787.5,217.5 Z"/></g>
<g><path style="opacity:1" fill="#d3f6e1" d="M 649.5,214.5 C 647.404,217.262 645.738,220.262 644.5,223.5C 640.142,229.735 637.642,236.735 637,244.5C 636.072,253.605 636.572,262.605 638.5,271.5C 636.955,270.77 636.122,269.437 636,267.5C 635.5,256.839 635.333,246.172 635.5,235.5C 636.629,234.53 637.629,233.364 638.5,232C 639.319,227.867 640.819,224.034 643,220.5C 644.535,217.706 646.702,215.706 649.5,214.5 Z"/></g>
<g><path style="opacity:1" fill="#e3f9eb" d="M 765.5,208.5 C 765.66,210.199 765.494,211.866 765,213.5C 763.294,214.308 762.461,215.641 762.5,217.5C 764.201,217.034 765.701,217.034 767,217.5C 767.167,218.167 767.333,218.833 767.5,219.5C 766.579,221.13 765.745,222.797 765,224.5C 764.231,217.802 761.731,216.969 757.5,222C 765.787,240.763 766.62,259.93 760,279.5C 759.292,280.381 758.458,281.047 757.5,281.5C 762.115,269.925 763.948,257.925 763,245.5C 762.454,242.621 761.621,239.954 760.5,237.5C 760.5,237.167 760.5,236.833 760.5,236.5C 759.623,230.745 757.623,225.412 754.5,220.5C 758.16,216.506 761.827,212.506 765.5,208.5 Z"/></g>
<g><path style="opacity:1" fill="#d9fbe8" d="M 724.5,250.5 C 728.019,243.162 733.185,237.162 740,232.5C 741.632,229.577 741.799,226.577 740.5,223.5C 738.259,221.548 736.259,219.382 734.5,217C 729.883,215.703 726.05,216.87 723,220.5C 722.617,219.944 722.117,219.611 721.5,219.5C 722.771,217.066 724.771,215.566 727.5,215C 739.38,214.244 744.213,219.744 742,231.5C 737.037,238.63 731.203,244.963 724.5,250.5 Z"/></g>
<g><path style="opacity:1" fill="#ecf3f6" d="M 614.5,213.5 C 617.496,216.44 618.83,220.106 618.5,224.5C 617.219,231.124 615.552,237.624 613.5,244C 614.45,246.91 616.45,248.077 619.5,247.5C 619.337,245.143 619.503,242.81 620,240.5C 621.699,239.594 623.533,239.261 625.5,239.5C 626.005,250.143 626.172,260.81 626,271.5C 629.826,274.145 629.993,276.645 626.5,279C 628.473,279.495 630.473,279.662 632.5,279.5C 632.5,276.833 632.5,274.167 632.5,271.5C 631.5,271.5 630.5,271.5 629.5,271.5C 628.305,258.765 627.305,246.099 626.5,233.5C 626.808,232.692 627.308,232.025 628,231.5C 630.607,237.201 632.107,243.201 632.5,249.5C 633.973,244.839 634.973,240.172 635.5,235.5C 635.333,246.172 635.5,256.839 636,267.5C 636.122,269.437 636.955,270.77 638.5,271.5C 638.5,272.167 638.5,272.833 638.5,273.5C 638.183,276.572 638.516,279.572 639.5,282.5C 642.042,284.917 643.542,287.917 644,291.5C 646.735,293.732 648.902,296.399 650.5,299.5C 653.382,301.436 656.049,303.602 658.5,306C 656.294,307.25 654.961,309.084 654.5,311.5C 656.821,311.771 658.821,311.104 660.5,309.5C 661.5,310 662.5,310.5 663.5,311C 660.927,313.73 658.26,316.23 655.5,318.5C 657.045,319.452 658.712,319.785 660.5,319.5C 660.391,322.534 659.057,323.534 656.5,322.5C 655.808,323.025 655.308,323.692 655,324.5C 649.09,324.424 645.923,321.424 645.5,315.5C 642.522,314.647 639.522,313.981 636.5,313.5C 634.167,311.5 631.833,309.5 629.5,307.5C 627.643,301.945 623.976,299.945 618.5,301.5C 617.673,306.186 619.339,309.853 623.5,312.5C 623.5,312.833 623.5,313.167 623.5,313.5C 625.239,316.243 627.573,318.243 630.5,319.5C 633.306,323.137 636.639,326.304 640.5,329C 645.833,332.333 651.167,335.667 656.5,339C 662.476,340.984 668.476,342.984 674.5,345C 678.77,346.075 683.103,346.575 687.5,346.5C 703.756,347.801 719.756,345.801 735.5,340.5C 735.5,341.5 735.5,342.5 735.5,343.5C 716.504,347.952 697.171,349.785 677.5,349C 685.871,349.954 694.204,350.287 702.5,350C 703.406,351.699 703.739,353.533 703.5,355.5C 700.45,356.077 698.45,354.91 697.5,352C 695.231,351.242 693.064,351.409 691,352.5C 690.966,354.18 690.799,355.68 690.5,357C 693.444,357.97 696.444,358.804 699.5,359.5C 700.531,360.7 701.365,362.034 702,363.5C 702.414,363.043 702.914,362.709 703.5,362.5C 704.173,364.689 705.173,366.689 706.5,368.5C 706.137,369.183 705.804,369.85 705.5,370.5C 695.512,360.805 684.179,358.972 671.5,365C 658.88,376.58 657.38,389.414 667,403.5C 682.111,415.305 695.611,413.638 707.5,398.5C 708.833,398.5 710.167,398.5 711.5,398.5C 711.692,393.73 712.525,389.063 714,384.5C 715.657,381.84 717.324,381.84 719,384.5C 721.146,383.119 722.313,383.786 722.5,386.5C 720.69,392.382 718.857,398.382 717,404.5C 716.535,405.931 715.701,407.097 714.5,408C 720.864,414.699 727.531,421.032 734.5,427C 736.025,428.009 737.692,428.509 739.5,428.5C 739.034,430.201 739.034,431.701 739.5,433C 737.806,434.939 735.973,436.772 734,438.5C 732.513,437.747 732.346,436.914 733.5,436C 732.5,435.333 731.5,435.333 730.5,436C 730.833,436.333 731.167,436.667 731.5,437C 730.097,440.473 728.43,443.806 726.5,447C 726.622,452.093 726.789,457.259 727,462.5C 729.948,464.681 730.781,467.347 729.5,470.5C 730.182,472.841 730.849,475.174 731.5,477.5C 733.5,477.5 735.5,477.5 737.5,477.5C 736.292,472.542 735.292,467.542 734.5,462.5C 740.93,476.587 750.93,479.753 764.5,472C 767.121,469.886 769.121,467.386 770.5,464.5C 770.481,466.06 770.148,467.56 769.5,469C 767.481,470.688 765.814,472.688 764.5,475C 767.119,475.151 769.453,475.985 771.5,477.5C 773.071,475.585 775.071,474.585 777.5,474.5C 769.798,485.365 759.131,490.199 745.5,489C 761.283,510.613 777.617,531.78 794.5,552.5C 791.744,553.046 789.41,554.38 787.5,556.5C 791.616,561.098 791.283,565.431 786.5,569.5C 785.548,571.045 785.215,572.712 785.5,574.5C 779.666,573.337 777,575.671 777.5,581.5C 774.372,583.235 771.039,584.068 767.5,584C 766.12,582.075 764.62,580.241 763,578.5C 762.667,578.833 762.333,579.167 762,579.5C 760.979,576.668 760.479,573.668 760.5,570.5C 764.135,574.307 767.635,578.307 771,582.5C 771.717,581.956 772.217,581.289 772.5,580.5C 777.636,574.522 782.636,568.355 787.5,562C 770.063,540.953 753.23,519.453 737,497.5C 727.149,499.162 722.316,494.829 722.5,484.5C 713.272,483.395 704.272,481.729 695.5,479.5C 698.167,479.5 700.833,479.5 703.5,479.5C 703.657,478.127 703.49,476.793 703,475.5C 702.586,475.957 702.086,476.291 701.5,476.5C 699.615,475.391 697.615,474.557 695.5,474C 694.663,472.989 694.33,471.822 694.5,470.5C 690.298,469.046 686.298,469.546 682.5,472C 681.233,473.796 681.233,475.629 682.5,477.5C 682.023,478.931 681.357,480.264 680.5,481.5C 677.518,482.398 674.518,482.565 671.5,482C 675.303,484.578 677.636,488.244 678.5,493C 676.144,495.908 675.478,499.075 676.5,502.5C 676.154,503.696 675.654,503.696 675,502.5C 672.406,508.209 671.073,514.209 671,520.5C 669.954,522.09 668.787,523.59 667.5,525C 667.833,525.333 668.167,525.667 668.5,526C 666.208,527.29 664.208,528.957 662.5,531C 662.833,532 663.167,533 663.5,534C 662.551,534.617 661.718,534.451 661,533.5C 658.629,535.373 656.129,537.039 653.5,538.5C 659.651,533.181 664.485,526.847 668,519.5C 670.328,510.523 672.494,501.523 674.5,492.5C 675.043,492.44 675.376,492.107 675.5,491.5C 650.175,490.5 624.842,490.167 599.5,490.5C 583.414,489.707 571.914,482.041 565,467.5C 562.498,451.159 563.998,435.159 569.5,419.5C 563.89,413.857 563.057,407.523 567,400.5C 571.186,396.578 576.019,395.412 581.5,397C 595.167,386.667 608.833,376.333 622.5,366C 624.746,364.743 626.079,362.91 626.5,360.5C 618.09,357.799 609.757,354.799 601.5,351.5C 590.963,357.866 580.296,364.033 569.5,370C 563.667,370.833 561.167,368.333 562,362.5C 563.167,361.333 564.333,360.167 565.5,359C 573.662,354.753 581.662,350.253 589.5,345.5C 579.328,334.752 575.328,321.919 577.5,307C 577.667,301.833 577.833,296.667 578,291.5C 580.636,287.521 583.303,283.521 586,279.5C 588.289,273.343 589.789,267.009 590.5,260.5C 595.447,261.372 599.613,260.039 603,256.5C 610.619,243.149 614.452,228.815 614.5,213.5 Z"/></g>
<g><path style="opacity:1" fill="#5eb07b" d="M 702.5,239.5 C 696.474,245.706 690.141,251.706 683.5,257.5C 680.36,255.527 677.36,253.36 674.5,251C 664.249,248.746 659.249,252.912 659.5,263.5C 656.884,251.284 661.884,246.451 674.5,249C 677.209,249.541 679.209,251.041 680.5,253.5C 682.396,254.466 684.396,254.799 686.5,254.5C 686.351,253.448 686.517,252.448 687,251.5C 689.833,250 692,247.833 693.5,245C 695.909,243.799 697.909,242.133 699.5,240C 700.448,239.517 701.448,239.351 702.5,239.5 Z"/></g>
<g><path style="opacity:1" fill="#58a972" d="M 644.5,223.5 C 642.998,228.876 641.165,234.21 639,239.5C 638.39,244.489 637.89,249.489 637.5,254.5C 638.129,261.899 639.129,269.232 640.5,276.5C 639.833,275.5 639.167,274.5 638.5,273.5C 638.5,272.833 638.5,272.167 638.5,271.5C 636.572,262.605 636.072,253.605 637,244.5C 637.642,236.735 640.142,229.735 644.5,223.5 Z"/></g>
<g><path style="opacity:1" fill="#eff5f6" d="M 724.5,250.5 C 723.127,250.343 721.793,250.51 720.5,251C 715.327,255.946 710.494,261.112 706,266.5C 704.579,268.405 703.412,270.405 702.5,272.5C 698.835,277.006 694.835,281.173 690.5,285C 687.518,285.498 684.518,285.665 681.5,285.5C 673.779,278.446 666.446,271.113 659.5,263.5C 659.249,252.912 664.249,248.746 674.5,251C 677.36,253.36 680.36,255.527 683.5,257.5C 690.141,251.706 696.474,245.706 702.5,239.5C 702.833,238.833 703.167,238.167 703.5,237.5C 709.915,231.752 715.915,225.752 721.5,219.5C 722.117,219.611 722.617,219.944 723,220.5C 726.05,216.87 729.883,215.703 734.5,217C 736.259,219.382 738.259,221.548 740.5,223.5C 741.799,226.577 741.632,229.577 740,232.5C 733.185,237.162 728.019,243.162 724.5,250.5 Z"/></g>
<g><path style="opacity:1" fill="#58b56f" d="M 338.5,254.5 C 341.545,254.508 344.545,254.841 347.5,255.5C 347.74,258.579 347.407,261.579 346.5,264.5C 338.862,268.362 335.362,266.028 336,257.5C 337.045,256.627 337.878,255.627 338.5,254.5 Z"/></g>
<g><path style="opacity:1" fill="#dafce7" d="M 724.5,250.5 C 723.167,252.167 721.833,253.833 720.5,255.5C 714.5,261.167 708.5,266.833 702.5,272.5C 703.412,270.405 704.579,268.405 706,266.5C 710.494,261.112 715.327,255.946 720.5,251C 721.793,250.51 723.127,250.343 724.5,250.5 Z"/></g>
<g><path style="opacity:1" fill="#4cc168" d="M 789.5,223.5 C 790.294,233.349 791.294,243.183 792.5,253C 792.162,263.449 789.662,273.282 785,282.5C 783.179,293.679 778.512,303.346 771,311.5C 770.517,312.448 770.351,313.448 770.5,314.5C 769.833,314.833 769.167,315.167 768.5,315.5C 766.952,315.821 766.285,316.821 766.5,318.5C 763.138,320.217 759.805,321.883 756.5,323.5C 756.34,321.801 756.506,320.134 757,318.5C 760.333,314.5 764,310.833 768,307.5C 768.483,306.552 768.649,305.552 768.5,304.5C 769.978,304.762 771.311,304.429 772.5,303.5C 773.13,300.312 774.13,297.312 775.5,294.5C 779.826,288.247 782.493,281.247 783.5,273.5C 783.833,269.5 784.167,265.5 784.5,261.5C 784.5,261.167 784.5,260.833 784.5,260.5C 785.72,252.315 785.72,243.982 784.5,235.5C 783.927,230.153 783.26,224.82 782.5,219.5C 783.93,219.421 785.264,219.754 786.5,220.5C 787.141,221.993 788.141,222.993 789.5,223.5 Z"/></g>
<g><path style="opacity:1" fill="#66af7d" d="M 402.5,257.5 C 405.38,257.033 407.713,257.866 409.5,260C 410.195,265.177 410.861,270.343 411.5,275.5C 410.542,275.047 409.708,274.381 409,273.5C 408.667,269.5 408.333,265.5 408,261.5C 406.211,259.771 404.044,259.104 401.5,259.5C 401.833,258.833 402.167,258.167 402.5,257.5 Z"/></g>
<g><path style="opacity:1" fill="#e0fae7" d="M 402.5,257.5 C 402.167,258.167 401.833,258.833 401.5,259.5C 400.883,259.611 400.383,259.944 400,260.5C 399.828,265.202 399.328,269.868 398.5,274.5C 393.553,275.283 388.553,275.783 383.5,276C 379.555,279.831 379.555,283.664 383.5,287.5C 378.224,286.707 376.391,283.707 378,278.5C 379.167,277.333 380.333,276.167 381.5,275C 385.833,274.667 390.167,274.333 394.5,274C 395.5,273.5 396.5,273 397.5,272.5C 398.328,267.868 398.828,263.202 399,258.5C 400.011,257.663 401.178,257.33 402.5,257.5 Z"/></g>
<g><path style="opacity:1" fill="#5eb077" d="M 659.5,263.5 C 666.446,271.113 673.779,278.446 681.5,285.5C 678.343,285.921 676.01,284.755 674.5,282C 673.552,281.517 672.552,281.351 671.5,281.5C 671.579,280.07 671.246,278.736 670.5,277.5C 666.772,274.345 663.272,271.012 660,267.5C 659.51,266.207 659.343,264.873 659.5,263.5 Z"/></g>
<g><path style="opacity:1" fill="#4cbc62" d="M 401.5,259.5 C 404.044,259.104 406.211,259.771 408,261.5C 408.333,265.5 408.667,269.5 409,273.5C 409.708,274.381 410.542,275.047 411.5,275.5C 417.29,275.096 422.956,275.596 428.5,277C 429.679,279.796 429.679,282.629 428.5,285.5C 427.711,285.783 427.044,286.283 426.5,287C 421.511,287.499 416.511,287.666 411.5,287.5C 410.5,287.5 409.5,287.5 408.5,287.5C 408.5,292.833 408.5,298.167 408.5,303.5C 406.208,303.756 404.041,303.423 402,302.5C 401.882,297.171 401.049,292.005 399.5,287C 398.026,285.684 396.359,284.684 394.5,284C 390.848,283.501 387.182,283.335 383.5,283.5C 383.244,281.208 383.577,279.041 384.5,277C 389.553,276.783 394.553,276.283 399.5,275.5C 400.97,270.27 401.637,264.937 401.5,259.5 Z"/></g>
<g><path style="opacity:1" fill="#5ab978" d="M 789.5,223.5 C 797.407,251.912 793.907,278.912 779,304.5C 776.376,308.131 773.542,311.464 770.5,314.5C 770.351,313.448 770.517,312.448 771,311.5C 778.512,303.346 783.179,293.679 785,282.5C 789.662,273.282 792.162,263.449 792.5,253C 791.294,243.183 790.294,233.349 789.5,223.5 Z"/></g>
<g><path style="opacity:1" fill="#56ae70" d="M 760.5,237.5 C 761.621,239.954 762.454,242.621 763,245.5C 763.948,257.925 762.115,269.925 757.5,281.5C 754.596,286.741 750.929,291.407 746.5,295.5C 747.038,293.883 747.371,292.216 747.5,290.5C 748.5,290.5 749.5,290.5 750.5,290.5C 751.333,288.248 751.333,286.081 750.5,284C 752.314,280.858 754.481,278.025 757,275.5C 757.809,271.604 759.143,267.937 761,264.5C 761.441,255.492 761.274,246.492 760.5,237.5 Z"/></g>
<g><path style="opacity:1" fill="#60b674" d="M 401.5,259.5 C 401.637,264.937 400.97,270.27 399.5,275.5C 394.553,276.283 389.553,276.783 384.5,277C 383.577,279.041 383.244,281.208 383.5,283.5C 387.182,283.335 390.848,283.501 394.5,284C 396.359,284.684 398.026,285.684 399.5,287C 401.049,292.005 401.882,297.171 402,302.5C 404.041,303.423 406.208,303.756 408.5,303.5C 406.121,306.14 403.621,306.14 401,303.5C 399.913,298.362 399.08,293.195 398.5,288C 393.511,287.501 388.511,287.334 383.5,287.5C 379.555,283.664 379.555,279.831 383.5,276C 388.553,275.783 393.553,275.283 398.5,274.5C 399.328,269.868 399.828,265.202 400,260.5C 400.383,259.944 400.883,259.611 401.5,259.5 Z"/></g>
<g><path style="opacity:1" fill="#67b67e" d="M 783.5,273.5 C 782.493,281.247 779.826,288.247 775.5,294.5C 778.167,287.491 780.834,280.491 783.5,273.5 Z"/></g>
<g><path style="opacity:1" fill="#67ac7b" d="M 288.5,288.5 C 296.81,287.806 299.144,291.14 295.5,298.5C 286.896,300.004 284.562,296.671 288.5,288.5 Z"/></g>
<g><path style="opacity:1" fill="#50be6b" d="M 290.5,290.5 C 295.407,290.533 296.74,292.866 294.5,297.5C 290.876,299.396 288.876,298.396 288.5,294.5C 288.803,292.886 289.47,291.552 290.5,290.5 Z"/></g>
<g><path style="opacity:1" fill="#dff9eb" d="M 428.5,285.5 C 428.586,286.496 428.252,287.329 427.5,288C 423.459,288.173 419.459,288.673 415.5,289.5C 414.833,290.167 414.167,290.833 413.5,291.5C 412.726,295.779 412.226,300.113 412,304.5C 410.846,305.743 409.512,306.743 408,307.5C 404.943,306.549 401.777,306.216 398.5,306.5C 398.5,302.167 398.5,297.833 398.5,293.5C 395.983,292.99 393.983,291.656 392.5,289.5C 389.358,288.833 386.358,288.166 383.5,287.5C 388.511,287.334 393.511,287.501 398.5,288C 399.08,293.195 399.913,298.362 401,303.5C 403.621,306.14 406.121,306.14 408.5,303.5C 410.213,298.519 411.213,293.186 411.5,287.5C 416.511,287.666 421.511,287.499 426.5,287C 427.044,286.283 427.711,285.783 428.5,285.5 Z"/></g>
<g><path style="opacity:1" fill="#5bb47b" d="M 411.5,287.5 C 411.213,293.186 410.213,298.519 408.5,303.5C 408.5,298.167 408.5,292.833 408.5,287.5C 409.5,287.5 410.5,287.5 411.5,287.5 Z"/></g>
<g><path style="opacity:1" fill="#61b07d" d="M 324.5,305.5 C 330.82,305.32 333.32,308.32 332,314.5C 329.162,318.035 325.995,318.368 322.5,315.5C 320.741,311.454 321.408,308.121 324.5,305.5 Z"/></g>
<g><path style="opacity:1" fill="#66b977" d="M 629.5,307.5 C 628.038,306.542 626.705,305.376 625.5,304C 623.866,303.506 622.199,303.34 620.5,303.5C 620.5,304.5 620.5,305.5 620.5,306.5C 622.144,306.714 623.644,306.38 625,305.5C 626.914,306.676 626.748,307.676 624.5,308.5C 623.754,309.736 623.421,311.07 623.5,312.5C 619.339,309.853 617.673,306.186 618.5,301.5C 623.976,299.945 627.643,301.945 629.5,307.5 Z"/></g>
<g><path style="opacity:1" fill="#4ebe66" d="M 629.5,307.5 C 630.203,309.716 631.536,311.549 633.5,313C 630.315,314.401 626.982,314.568 623.5,313.5C 623.5,313.167 623.5,312.833 623.5,312.5C 623.421,311.07 623.754,309.736 624.5,308.5C 626.748,307.676 626.914,306.676 625,305.5C 623.644,306.38 622.144,306.714 620.5,306.5C 620.5,305.5 620.5,304.5 620.5,303.5C 622.199,303.34 623.866,303.506 625.5,304C 626.705,305.376 628.038,306.542 629.5,307.5 Z"/></g>
<g><path style="opacity:1" fill="#44bf65" d="M 325.5,307.5 C 330.378,307.535 331.711,309.868 329.5,314.5C 326.471,316.102 324.471,315.269 323.5,312C 323.519,310.167 324.185,308.667 325.5,307.5 Z"/></g>
<g><path style="opacity:1" fill="#eff6f5" d="M 784.5,261.5 C 784.167,265.5 783.833,269.5 783.5,273.5C 780.834,280.491 778.167,287.491 775.5,294.5C 763.425,313.857 746.758,327.524 725.5,335.5C 722.99,335.054 720.99,335.72 719.5,337.5C 707.489,338.723 695.489,338.723 683.5,337.5C 683.586,336.504 683.252,335.671 682.5,335C 673.799,334.49 665.799,331.823 658.5,327C 656.26,326.023 653.927,325.523 651.5,325.5C 645.548,322.691 640.548,318.691 636.5,313.5C 639.522,313.981 642.522,314.647 645.5,315.5C 645.923,321.424 649.09,324.424 655,324.5C 655.308,323.692 655.808,323.025 656.5,322.5C 659.057,323.534 660.391,322.534 660.5,319.5C 658.712,319.785 657.045,319.452 655.5,318.5C 658.26,316.23 660.927,313.73 663.5,311C 662.5,310.5 661.5,310 660.5,309.5C 658.821,311.104 656.821,311.771 654.5,311.5C 654.961,309.084 656.294,307.25 658.5,306C 656.049,303.602 653.382,301.436 650.5,299.5C 648.902,296.399 646.735,293.732 644,291.5C 643.542,287.917 642.042,284.917 639.5,282.5C 638.516,279.572 638.183,276.572 638.5,273.5C 639.167,274.5 639.833,275.5 640.5,276.5C 640.5,276.833 640.5,277.167 640.5,277.5C 649.455,299.109 665.455,312.442 688.5,317.5C 694.293,318.974 700.293,319.474 706.5,319C 711.083,317.855 715.749,317.189 720.5,317C 722.635,316.124 723.969,314.624 724.5,312.5C 728.372,310.403 732.039,308.069 735.5,305.5C 738.167,303.833 740.833,302.167 743.5,300.5C 744.239,300.369 744.906,300.536 745.5,301C 744.826,302.751 744.493,304.417 744.5,306C 747.697,308.605 751.363,311.438 755.5,314.5C 757.667,312.833 759.833,311.167 762,309.5C 762.783,307.681 762.283,306.348 760.5,305.5C 758.889,306.32 758.222,307.654 758.5,309.5C 757.167,309.5 755.833,309.5 754.5,309.5C 754.394,306.892 753.228,304.892 751,303.5C 750.38,300.029 751.88,298.029 755.5,297.5C 756.863,298.198 758.029,298.198 759,297.5C 759.604,299.686 760.77,299.852 762.5,298C 763.293,296.915 763.96,295.748 764.5,294.5C 764.154,293.304 763.654,293.304 763,294.5C 762.508,293.451 762.674,292.451 763.5,291.5C 762.833,290.833 762.167,290.167 761.5,289.5C 763.459,288.252 764.959,286.585 766,284.5C 767.019,285.687 768.186,286.687 769.5,287.5C 769.833,286.667 770.167,285.833 770.5,285C 769.854,281.188 769.354,277.354 769,273.5C 767.989,274.337 766.822,274.67 765.5,274.5C 765.5,273.5 765.5,272.5 765.5,271.5C 767.547,271.489 769.547,271.156 771.5,270.5C 773.721,271.116 774.388,272.283 773.5,274C 774.167,275 774.833,276 775.5,277C 773.253,280.756 772.753,284.589 774,288.5C 775.83,286.842 777.164,284.842 778,282.5C 780.281,275.408 782.447,268.408 784.5,261.5 Z"/></g>
<g><path style="opacity:1" fill="#5aaf74" d="M 746.5,295.5 C 745.925,297.411 744.925,299.078 743.5,300.5C 740.833,302.167 738.167,303.833 735.5,305.5C 735.5,304.5 735.5,303.5 735.5,302.5C 736.5,302.5 737.5,302.5 738.5,302.5C 738.33,301.178 738.663,300.011 739.5,299C 741.886,297.807 744.22,296.64 746.5,295.5 Z"/></g>
<g><path style="opacity:1" fill="#57ab73" d="M 640.5,277.5 C 643.827,279.47 645.661,282.47 646,286.5C 650.194,291.06 654.028,295.894 657.5,301C 662.161,303.991 666.827,306.991 671.5,310C 676.116,309.729 680.116,311.063 683.5,314C 692.152,315.919 700.818,315.919 709.5,314C 710.52,312.444 711.853,311.278 713.5,310.5C 718.137,309.78 722.803,309.28 727.5,309C 729.674,306.648 732.341,305.481 735.5,305.5C 732.039,308.069 728.372,310.403 724.5,312.5C 712.915,316.885 700.915,318.551 688.5,317.5C 665.455,312.442 649.455,299.109 640.5,277.5 Z"/></g>
<g><path style="opacity:1" fill="#d9fbeb" d="M 724.5,312.5 C 723.969,314.624 722.635,316.124 720.5,317C 715.749,317.189 711.083,317.855 706.5,319C 700.293,319.474 694.293,318.974 688.5,317.5C 700.915,318.551 712.915,316.885 724.5,312.5 Z"/></g>
<g><path style="opacity:1" fill="#49c062" d="M 807.5,316.5 C 813.5,315.167 815.833,317.5 814.5,323.5C 807.637,325.257 805.304,322.924 807.5,316.5 Z"/></g>
<g><path style="opacity:1" fill="#6aa878" d="M 814.5,323.5 C 815.833,317.5 813.5,315.167 807.5,316.5C 807.866,315.305 808.699,314.639 810,314.5C 816.439,315.376 817.939,318.376 814.5,323.5 Z"/></g>
<g><path style="opacity:1" fill="#6ab57e" d="M 630.5,319.5 C 634.527,321.02 637.86,323.52 640.5,327C 645.055,329.725 649.722,332.225 654.5,334.5C 660.507,337 666.507,339.833 672.5,343C 675.432,343.953 678.432,344.453 681.5,344.5C 683.626,345.048 685.626,345.715 687.5,346.5C 683.103,346.575 678.77,346.075 674.5,345C 668.476,342.984 662.476,340.984 656.5,339C 651.167,335.667 645.833,332.333 640.5,329C 636.639,326.304 633.306,323.137 630.5,319.5 Z"/></g>
<g><path style="opacity:1" fill="#6db37d" d="M 807.5,316.5 C 805.304,322.924 807.637,325.257 814.5,323.5C 813.508,325.026 812.008,325.693 810,325.5C 805.826,324.498 804.159,321.831 805,317.5C 805.671,316.748 806.504,316.414 807.5,316.5 Z"/></g>
<g><path style="opacity:1" fill="#5fb574" d="M 775.5,294.5 C 774.13,297.312 773.13,300.312 772.5,303.5C 771.311,304.429 769.978,304.762 768.5,304.5C 768.649,305.552 768.483,306.552 768,307.5C 764,310.833 760.333,314.5 757,318.5C 756.506,320.134 756.34,321.801 756.5,323.5C 759.805,321.883 763.138,320.217 766.5,318.5C 766.285,316.821 766.952,315.821 768.5,315.5C 762.579,324.488 754.579,331.154 744.5,335.5C 745.979,332.695 748.312,331.028 751.5,330.5C 751.5,329.5 751.5,328.5 751.5,327.5C 752.833,327.5 754.167,327.5 755.5,327.5C 755.592,323.929 753.926,322.762 750.5,324C 743.229,329.966 734.896,333.799 725.5,335.5C 746.758,327.524 763.425,313.857 775.5,294.5 Z"/></g>
<g><path style="opacity:1" fill="#4fc063" d="M 654.5,334.5 C 649.722,332.225 645.055,329.725 640.5,327C 637.86,323.52 634.527,321.02 630.5,319.5C 629.814,315.343 631.314,314.009 635,315.5C 640.928,320.876 647.428,325.376 654.5,329C 655.337,330.011 655.67,331.178 655.5,332.5C 663.53,335.251 663.197,335.917 654.5,334.5 Z"/></g>
<g><path style="opacity:1" fill="#d9f6e4" d="M 651.5,325.5 C 653.927,325.523 656.26,326.023 658.5,327C 665.799,331.823 673.799,334.49 682.5,335C 683.252,335.671 683.586,336.504 683.5,337.5C 671.767,336.038 661.1,332.038 651.5,325.5 Z"/></g>
<g><path style="opacity:1" fill="#58b56e" d="M 629.5,307.5 C 631.833,309.5 634.167,311.5 636.5,313.5C 640.548,318.691 645.548,322.691 651.5,325.5C 661.1,332.038 671.767,336.038 683.5,337.5C 695.489,338.723 707.489,338.723 719.5,337.5C 711.732,339.058 703.732,339.724 695.5,339.5C 685.251,339.779 675.251,338.946 665.5,337C 669.434,340.585 674.101,342.418 679.5,342.5C 680.243,343.182 680.909,343.849 681.5,344.5C 678.432,344.453 675.432,343.953 672.5,343C 666.507,339.833 660.507,337 654.5,334.5C 663.197,335.917 663.53,335.251 655.5,332.5C 655.67,331.178 655.337,330.011 654.5,329C 647.428,325.376 640.928,320.876 635,315.5C 631.314,314.009 629.814,315.343 630.5,319.5C 627.573,318.243 625.239,316.243 623.5,313.5C 626.982,314.568 630.315,314.401 633.5,313C 631.536,311.549 630.203,309.716 629.5,307.5 Z"/></g>
<g><path style="opacity:1" fill="#48bc64" d="M 744.5,335.5 C 741.304,336.929 738.304,338.595 735.5,340.5C 719.756,345.801 703.756,347.801 687.5,346.5C 685.626,345.715 683.626,345.048 681.5,344.5C 680.909,343.849 680.243,343.182 679.5,342.5C 674.101,342.418 669.434,340.585 665.5,337C 675.251,338.946 685.251,339.779 695.5,339.5C 703.732,339.724 711.732,339.058 719.5,337.5C 720.99,335.72 722.99,335.054 725.5,335.5C 734.896,333.799 743.229,329.966 750.5,324C 753.926,322.762 755.592,323.929 755.5,327.5C 754.167,327.5 752.833,327.5 751.5,327.5C 751.5,328.5 751.5,329.5 751.5,330.5C 748.312,331.028 745.979,332.695 744.5,335.5 Z"/></g>
<g><path style="opacity:1" fill="#e0fbeb" d="M 779.5,342.5 C 783.603,341.769 787.103,342.769 790,345.5C 791.102,349.416 791.769,353.416 792,357.5C 792.915,358.328 793.581,359.328 794,360.5C 798.824,361.165 803.657,361.499 808.5,361.5C 812.824,367.045 812.491,372.212 807.5,377C 802.833,377.333 798.167,377.667 793.5,378C 792.667,378.833 791.833,379.667 791,380.5C 790.667,384.167 790.333,387.833 790,391.5C 783.619,397.592 778.786,396.592 775.5,388.5C 774.417,386.208 774.417,383.875 775.5,381.5C 775.278,379.945 774.611,378.611 773.5,377.5C 768.533,376.671 763.533,376.171 758.5,376C 751.827,369.782 752.493,364.948 760.5,361.5C 764.5,360.833 768.5,360.167 772.5,359.5C 774.024,355.717 775.024,351.717 775.5,347.5C 777.237,346.103 778.571,344.436 779.5,342.5 Z"/></g>
<g><path style="opacity:1" fill="#defbe9" d="M 301.5,371.5 C 301.773,373.451 301.107,374.951 299.5,376C 293.833,376.333 288.167,376.667 282.5,377C 282,377.5 281.5,378 281,378.5C 280.912,384.61 280.245,390.61 279,396.5C 273.687,402.03 268.687,401.697 264,395.5C 263.667,390.167 263.333,384.833 263,379.5C 262.097,378.299 260.931,377.465 259.5,377C 253.722,376.906 248.056,376.239 242.5,375C 241.667,374.167 240.833,373.333 240,372.5C 239.333,369.167 239.333,365.833 240,362.5C 240.833,361.667 241.667,360.833 242.5,360C 249.191,359.831 255.858,359.331 262.5,358.5C 263.085,351.804 263.919,345.138 265,338.5C 265.374,337.584 265.874,336.75 266.5,336C 268.716,336.544 270.883,336.377 273,335.5C 275.873,335.598 277.873,336.932 279,339.5C 279.242,345.884 279.908,352.218 281,358.5C 287.085,359.312 293.252,359.812 299.5,360C 303.716,363.434 304.383,367.267 301.5,371.5 Z"/></g>
<g><path style="opacity:1" fill="#5db177" d="M 301.5,371.5 C 295.223,374.223 288.557,375.223 281.5,374.5C 282.334,373.252 283.667,372.585 285.5,372.5C 289.5,372 293.5,371.5 297.5,371C 298.136,368.606 298.136,366.106 297.5,363.5C 291.16,363.151 284.827,362.651 278.5,362C 277.809,360.933 277.309,359.766 277,358.5C 276.667,352.5 276.333,346.5 276,340.5C 273.333,339.167 270.667,339.167 268,340.5C 267.544,346.204 267.544,351.87 268,357.5C 266.549,359.464 264.716,360.797 262.5,361.5C 263.504,360.317 264.338,358.984 265,357.5C 265.333,351.5 265.667,345.5 266,339.5C 269.736,336.911 273.402,336.911 277,339.5C 277.078,346.274 277.745,352.941 279,359.5C 279.5,360 280,360.5 280.5,361C 286.833,361.333 293.167,361.667 299.5,362C 301.34,364.826 302.006,367.993 301.5,371.5 Z"/></g>
<g><path style="opacity:1" fill="#5ab372" d="M 780.5,392.5 C 780.248,386.61 779.081,380.944 777,375.5C 771.682,373.856 766.182,373.023 760.5,373C 757.675,369.476 758.008,366.31 761.5,363.5C 766.203,363.563 770.87,363.229 775.5,362.5C 777.009,357.371 778.009,352.038 778.5,346.5C 781.703,343.878 784.87,343.878 788,346.5C 788.333,350.833 788.667,355.167 789,359.5C 790.214,361.049 791.714,362.215 793.5,363C 798.202,363.172 802.868,363.672 807.5,364.5C 810.684,368.588 810.018,371.755 805.5,374C 791.667,371.833 785.833,377.667 788,391.5C 785.561,393.498 783.061,393.831 780.5,392.5 Z"/></g>
<g><path style="opacity:1" fill="#4abd61" d="M 775.5,362.5 C 777.582,362.376 779.082,361.376 780,359.5C 780.499,355.514 780.666,351.514 780.5,347.5C 782.144,347.286 783.644,347.62 785,348.5C 784.894,354.052 786.06,359.219 788.5,364C 794.156,364.888 799.823,365.721 805.5,366.5C 807.007,368.969 806.673,371.135 804.5,373C 791.755,369.762 785.589,374.595 786,387.5C 784.921,389.394 783.587,389.727 782,388.5C 781.774,384.113 781.274,379.779 780.5,375.5C 773.996,373.465 767.496,371.798 761,370.5C 760.175,368.299 760.675,366.466 762.5,365C 767.28,365.108 771.614,364.275 775.5,362.5 Z"/></g>
<g><path style="opacity:1" fill="#47bd62" d="M 281.5,374.5 C 279.058,376.121 277.725,378.454 277.5,381.5C 276.834,385.353 276.167,389.353 275.5,393.5C 273.438,395.725 271.105,396.058 268.5,394.5C 267.833,388.5 267.167,382.5 266.5,376.5C 265.354,375.855 264.354,375.022 263.5,374C 257.077,373.771 250.743,372.937 244.5,371.5C 243.607,368.916 243.274,366.249 243.5,363.5C 243.611,362.883 243.944,362.383 244.5,362C 250.491,361.501 256.491,361.334 262.5,361.5C 264.716,360.797 266.549,359.464 268,357.5C 267.544,351.87 267.544,346.204 268,340.5C 270.667,339.167 273.333,339.167 276,340.5C 276.333,346.5 276.667,352.5 277,358.5C 277.309,359.766 277.809,360.933 278.5,362C 284.827,362.651 291.16,363.151 297.5,363.5C 298.136,366.106 298.136,368.606 297.5,371C 293.5,371.5 289.5,372 285.5,372.5C 283.667,372.585 282.334,373.252 281.5,374.5 Z"/></g>
<g><path style="opacity:1" fill="#0e3539" d="M 389.5,363.5 C 405.231,374.605 407.564,388.105 396.5,404C 393.067,406.711 389.4,408.877 385.5,410.5C 370.196,412.931 359.696,406.931 354,392.5C 352.188,370.312 362.354,360.146 384.5,362C 386.154,362.608 387.821,363.108 389.5,363.5 Z"/></g>
<g><path style="opacity:1" fill="#6db57f" d="M 761.5,363.5 C 758.008,366.31 757.675,369.476 760.5,373C 766.182,373.023 771.682,373.856 777,375.5C 779.081,380.944 780.248,386.61 780.5,392.5C 779.21,391.942 778.377,390.942 778,389.5C 777.667,385.833 777.333,382.167 777,378.5C 776.308,377.975 775.808,377.308 775.5,376.5C 770.533,375.671 765.533,375.171 760.5,375C 757.806,372.347 756.973,369.18 758,365.5C 758.816,364.177 759.983,363.511 761.5,363.5 Z"/></g>
<g><path style="opacity:1" fill="#62b27c" d="M 243.5,363.5 C 243.274,366.249 243.607,368.916 244.5,371.5C 250.743,372.937 257.077,373.771 263.5,374C 264.354,375.022 265.354,375.855 266.5,376.5C 267.167,382.5 267.833,388.5 268.5,394.5C 271.105,396.058 273.438,395.725 275.5,393.5C 276.167,389.353 276.834,385.353 277.5,381.5C 277.827,386.214 277.493,390.88 276.5,395.5C 271.862,400.006 268.362,399.339 266,393.5C 265.667,388.167 265.333,382.833 265,377.5C 263.829,376.107 262.329,375.273 260.5,375C 254.782,374.789 249.115,374.289 243.5,373.5C 240.917,370.029 240.917,366.696 243.5,363.5 Z"/></g>
<g><path style="opacity:1" fill="#0d3539" d="M 705.5,370.5 C 711.285,379.468 711.952,388.802 707.5,398.5C 695.611,413.638 682.111,415.305 667,403.5C 657.38,389.414 658.88,376.58 671.5,365C 684.179,358.972 695.512,360.805 705.5,370.5 Z"/></g>
<g><path style="opacity:1" fill="#0d373b" d="M 341.5,388.5 C 343.549,395.715 346.049,402.715 349,409.5C 341.698,415.893 334.531,422.393 327.5,429C 323.056,428.126 318.722,426.626 314.5,424.5C 321.574,411.001 330.574,399.001 341.5,388.5 Z"/></g>
<g><path style="opacity:1" fill="#0c3438" d="M 453.5,388.5 C 460.995,394.843 468.828,400.843 477,406.5C 476.667,412.5 479,417.167 484,420.5C 485.41,428.881 487.076,437.214 489,445.5C 491.66,465.327 483.16,476.66 463.5,479.5C 437.5,479.5 411.5,479.5 385.5,479.5C 385.737,478.209 385.404,477.209 384.5,476.5C 383.539,473.574 382.873,470.574 382.5,467.5C 367.161,468.918 351.995,471.251 337,474.5C 337.757,471.216 338.757,467.883 340,464.5C 341.709,454.547 340.209,445.214 335.5,436.5C 342.303,429.866 349.303,423.366 356.5,417C 357.5,416.333 358.5,416.333 359.5,417C 369.966,423.088 380.966,424.088 392.5,420C 396.411,418.556 399.744,416.389 402.5,413.5C 404.108,411.915 405.775,410.749 407.5,410C 423.994,421.415 440.661,432.581 457.5,443.5C 458.883,454.687 464.883,458.52 475.5,455C 482.167,448.667 482.167,442.333 475.5,436C 470.5,435 465.5,434 460.5,433C 444.406,422.537 428.573,411.704 413,400.5C 413.238,396.354 413.738,392.187 414.5,388C 414.249,383.153 413.249,378.486 411.5,374C 413.136,372.057 415.136,370.557 417.5,369.5C 420.698,368.066 424.032,367.566 427.5,368C 435.755,375.429 444.421,382.262 453.5,388.5 Z"/></g>
<g><path style="opacity:1" fill="#0d393d" d="M 722.5,386.5 C 733.133,398.787 742.133,412.12 749.5,426.5C 745.963,426.311 742.63,426.977 739.5,428.5C 737.692,428.509 736.025,428.009 734.5,427C 727.531,421.032 720.864,414.699 714.5,408C 715.701,407.097 716.535,405.931 717,404.5C 718.857,398.382 720.69,392.382 722.5,386.5 Z"/></g>
<g><path style="opacity:1" fill="#67ae78" d="M 794.5,411.5 C 802.963,412.271 804.629,416.104 799.5,423C 791.796,424.109 789.462,420.942 792.5,413.5C 793.522,413.145 794.189,412.478 794.5,411.5 Z"/></g>
<g><path style="opacity:1" fill="#4eb761" d="M 796.5,413.5 C 798.369,415.635 799.036,418.302 798.5,421.5C 793.5,422.5 791.5,420.5 792.5,415.5C 794.38,415.771 795.713,415.104 796.5,413.5 Z"/></g>
<g><path style="opacity:1" fill="#e7f1f6" d="M 417.5,369.5 C 415.136,370.557 413.136,372.057 411.5,374C 413.249,378.486 414.249,383.153 414.5,388C 413.738,392.187 413.238,396.354 413,400.5C 428.573,411.704 444.406,422.537 460.5,433C 465.5,434 470.5,435 475.5,436C 482.167,442.333 482.167,448.667 475.5,455C 464.883,458.52 458.883,454.687 457.5,443.5C 440.661,432.581 423.994,421.415 407.5,410C 405.775,410.749 404.108,411.915 402.5,413.5C 402.472,411.418 403.139,409.584 404.5,408C 406.657,407.922 408.657,407.755 410.5,407.5C 406.478,404.251 406.478,403.584 410.5,405.5C 411.732,404.855 413.065,404.689 414.5,405C 412.306,403.447 411.14,401.281 411,398.5C 410.831,392.141 410.331,385.807 409.5,379.5C 407.844,377.978 406.677,378.311 406,380.5C 406.013,387.992 405.013,395.326 403,402.5C 401.491,404.919 399.325,405.919 396.5,405.5C 395.453,412.687 391.786,414.354 385.5,410.5C 389.4,408.877 393.067,406.711 396.5,404C 407.564,388.105 405.231,374.605 389.5,363.5C 393.762,362.807 394.095,361.974 390.5,361C 391.944,360.219 393.277,360.386 394.5,361.5C 397.142,365.309 399.975,368.976 403,372.5C 406.43,370.679 409.763,369.346 413,368.5C 414.44,369.148 415.94,369.481 417.5,369.5 Z"/></g>
<g><path style="opacity:1" fill="#0b3438" d="M 637.5,367.5 C 642.826,368.442 647.826,370.275 652.5,373C 650.48,377.248 649.48,381.748 649.5,386.5C 650.021,391.219 650.521,395.886 651,400.5C 634.575,410.961 618.408,421.795 602.5,433C 597.833,434 593.167,435 588.5,436C 583.227,442.263 583.227,448.597 588.5,455C 599.859,458.969 605.859,454.969 606.5,443C 623.635,432.03 640.635,420.863 657.5,409.5C 671.927,424.115 688.26,426.449 706.5,416.5C 714.315,423.148 721.982,429.981 729.5,437C 721.001,448.681 720.334,460.847 727.5,473.5C 712.992,471.851 698.325,469.851 683.5,467.5C 680.305,470.724 678.638,474.724 678.5,479.5C 650.165,479.667 621.831,479.5 593.5,479C 581.462,474.776 574.795,466.276 573.5,453.5C 575.323,442.051 577.656,430.718 580.5,419.5C 585.032,416.433 587.199,412.099 587,406.5C 604.019,393.636 620.852,380.636 637.5,367.5 Z"/></g>
<g><path style="opacity:1" fill="#68b081" d="M 244.5,417.5 C 251.321,417.539 253.654,420.706 251.5,427C 244.568,430.043 241.401,427.876 242,420.5C 243.045,419.627 243.878,418.627 244.5,417.5 Z"/></g>
<g><path style="opacity:1" fill="#52ba6c" d="M 244.5,419.5 C 249,419.164 250.833,421.164 250,425.5C 248.112,427.922 246.112,427.922 244,425.5C 243.322,423.402 243.489,421.402 244.5,419.5 Z"/></g>
<g><path style="opacity:1" fill="#0e363a" d="M 770.5,464.5 C 769.121,467.386 767.121,469.886 764.5,472C 750.93,479.753 740.93,476.587 734.5,462.5C 732.159,447.514 738.492,439.18 753.5,437.5C 768.956,440.044 774.623,449.044 770.5,464.5 Z"/></g>
<g><path style="opacity:1" fill="#e2faeb" d="M 814.5,448.5 C 811.344,448.471 809.678,446.804 809.5,443.5C 810.747,441.677 811.414,439.677 811.5,437.5C 822.298,433.958 826.464,437.624 824,448.5C 821.454,451.186 818.287,452.186 814.5,451.5C 814.5,450.5 814.5,449.5 814.5,448.5 Z"/></g>
<g><path style="opacity:1" fill="#70b283" d="M 814.5,448.5 C 814.5,448.167 814.5,447.833 814.5,447.5C 820.501,448.439 822.501,446.105 820.5,440.5C 818.591,439.652 816.591,439.318 814.5,439.5C 815.659,437.623 817.326,437.123 819.5,438C 824.741,441.53 824.741,445.197 819.5,449C 817.735,449.64 816.068,449.473 814.5,448.5 Z"/></g>
<g><path style="opacity:1" fill="#57be70" d="M 814.5,439.5 C 816.591,439.318 818.591,439.652 820.5,440.5C 822.501,446.105 820.501,448.439 814.5,447.5C 812.561,446.986 811.561,445.653 811.5,443.5C 811.561,441.347 812.561,440.014 814.5,439.5 Z"/></g>
<g><path style="opacity:1" fill="#edf3f8" d="M 443.5,367.5 C 456.291,377.118 468.958,386.952 481.5,397C 489.306,395.042 495.139,397.542 499,404.5C 500.31,409.452 499.31,413.785 496,417.5C 496.563,426.552 497.896,435.552 500,444.5C 503.573,472.419 491.406,487.752 463.5,490.5C 438.5,490.5 413.5,490.5 388.5,490.5C 388.263,491.791 388.596,492.791 389.5,493.5C 391.328,504.989 394.661,515.989 399.5,526.5C 398.527,527.791 397.527,527.791 396.5,526.5C 393.242,521.953 391.575,516.953 391.5,511.5C 388.955,511.849 386.955,511.016 385.5,509C 385.957,508.586 386.291,508.086 386.5,507.5C 385.253,503.217 383.587,499.217 381.5,495.5C 379.801,495.66 378.134,495.494 376.5,495C 377.285,492.557 377.119,490.057 376,487.5C 375,495.5 374,495.5 373,487.5C 372.5,488 372,488.5 371.5,489C 372.246,491.093 372.579,493.093 372.5,495C 371.216,495.684 370.049,495.517 369,494.5C 367.938,497.029 367.105,499.696 366.5,502.5C 365.264,503.246 363.93,503.579 362.5,503.5C 362.78,506.272 362.113,508.772 360.5,511C 361.337,512.011 361.67,513.178 361.5,514.5C 363.527,514.338 365.527,514.505 367.5,515C 364.774,515.182 362.107,515.682 359.5,516.5C 360.025,517.192 360.692,517.692 361.5,518C 359.847,519.805 358.18,521.638 356.5,523.5C 354.821,522.218 352.987,521.218 351,520.5C 347.9,524.593 345.233,528.926 343,533.5C 341.084,534.928 338.917,535.928 336.5,536.5C 335.024,539.143 333.024,541.31 330.5,543C 331.184,544.693 332.184,546.193 333.5,547.5C 332.624,548.251 331.624,548.751 330.5,549C 330.957,549.414 331.291,549.914 331.5,550.5C 329.038,551.794 326.705,553.294 324.5,555C 323.207,555.49 321.873,555.657 320.5,555.5C 320.218,558.347 320.218,561.013 320.5,563.5C 319.833,564.167 319.167,564.833 318.5,565.5C 319.167,565.833 319.833,566.167 320.5,566.5C 319.593,569.421 319.26,572.421 319.5,575.5C 318.167,575.5 316.833,575.5 315.5,575.5C 315.657,574.127 315.49,572.793 315,571.5C 313.383,572.536 313.216,573.703 314.5,575C 310.761,576.543 307.094,578.043 303.5,579.5C 303.5,580.5 303.5,581.5 303.5,582.5C 304.822,582.33 305.989,582.663 307,583.5C 308.019,582.313 309.186,581.313 310.5,580.5C 311.386,581.325 311.719,582.325 311.5,583.5C 315.588,583.218 316.088,583.885 313,585.5C 309.872,584.796 306.706,584.296 303.5,584C 301.807,581.048 299.974,580.882 298,583.5C 296.092,580.668 295.259,581.001 295.5,584.5C 292.252,584.664 289.252,585.664 286.5,587.5C 286.827,589.667 287.494,592.001 288.5,594.5C 280.24,584.398 271.74,574.398 263,564.5C 262.333,563.167 262.333,561.833 263,560.5C 282.073,537.263 300.573,513.597 318.5,489.5C 303.73,489.956 292.73,483.956 285.5,471.5C 285.735,470.903 286.235,470.57 287,470.5C 288.605,472.064 290.438,472.564 292.5,472C 291.934,467.52 290.934,462.853 289.5,458C 290.187,453.061 290.187,448.228 289.5,443.5C 292.383,442.415 294.383,440.415 295.5,437.5C 301.377,435.485 307.211,434.485 313,434.5C 315.898,434.637 318.731,435.137 321.5,436C 320.619,436.708 319.953,437.542 319.5,438.5C 304.196,434.313 295.196,439.98 292.5,455.5C 293.142,467.129 299.142,474.129 310.5,476.5C 322.125,474.875 328.792,468.209 330.5,456.5C 329.603,449.298 326.27,443.631 320.5,439.5C 322.981,439.323 324.814,440.323 326,442.5C 327.395,441.185 328.395,441.519 329,443.5C 329.317,441.699 329.984,441.366 331,442.5C 331.483,441.552 331.649,440.552 331.5,439.5C 330.448,439.649 329.448,439.483 328.5,439C 330.854,438.153 333.188,437.32 335.5,436.5C 340.209,445.214 341.709,454.547 340,464.5C 338.757,467.883 337.757,471.216 337,474.5C 351.995,471.251 367.161,468.918 382.5,467.5C 382.873,470.574 383.539,473.574 384.5,476.5C 384.5,477.833 384.5,479.167 384.5,480.5C 411.005,480.831 437.339,480.498 463.5,479.5C 483.16,476.66 491.66,465.327 489,445.5C 487.076,437.214 485.41,428.881 484,420.5C 479,417.167 476.667,412.5 477,406.5C 468.828,400.843 460.995,394.843 453.5,388.5C 455.5,388.5 457.5,388.5 459.5,388.5C 459.5,389.5 459.5,390.5 459.5,391.5C 461.661,391.826 463.494,392.826 465,394.5C 465.694,393.182 466.527,392.349 467.5,392C 467.138,390.775 466.638,389.609 466,388.5C 462.448,389.972 460.782,388.638 461,384.5C 457.182,381.682 453.682,378.515 450.5,375C 448.608,374.027 446.608,373.36 444.5,373C 443.594,371.301 443.261,369.467 443.5,367.5 Z"/></g>
<g><path style="opacity:1" fill="#0e363a" d="M 319.5,438.5 C 319.5,439.167 319.833,439.5 320.5,439.5C 326.27,443.631 329.603,449.298 330.5,456.5C 328.792,468.209 322.125,474.875 310.5,476.5C 299.142,474.129 293.142,467.129 292.5,455.5C 295.196,439.98 304.196,434.313 319.5,438.5 Z"/></g>
<g><path style="opacity:1" fill="#bccfd4" d="M 384.5,476.5 C 385.404,477.209 385.737,478.209 385.5,479.5C 411.5,479.5 437.5,479.5 463.5,479.5C 437.339,480.498 411.005,480.831 384.5,480.5C 384.5,479.167 384.5,477.833 384.5,476.5 Z"/></g>
<g><path style="opacity:1" fill="#5eae6d" d="M 225.5,477.5 C 233.523,477.161 235.856,480.495 232.5,487.5C 226.949,489.727 223.949,487.894 223.5,482C 223.759,480.213 224.425,478.713 225.5,477.5 Z"/></g>
<g><path style="opacity:1" fill="#f1f4f7" d="M 695.5,479.5 C 694.761,479.369 694.094,479.536 693.5,480C 695.982,484.307 698.982,488.14 702.5,491.5C 721.833,517.833 741.167,544.167 760.5,570.5C 760.479,573.668 760.979,576.668 762,579.5C 762.333,579.167 762.667,578.833 763,578.5C 764.62,580.241 766.12,582.075 767.5,584C 771.039,584.068 774.372,583.235 777.5,581.5C 777,575.671 779.666,573.337 785.5,574.5C 785.215,572.712 785.548,571.045 786.5,569.5C 791.283,565.431 791.616,561.098 787.5,556.5C 789.41,554.38 791.744,553.046 794.5,552.5C 796.833,555.003 798.999,557.669 801,560.5C 801.738,563.212 801.071,565.545 799,567.5C 785.833,582.667 772.667,597.833 759.5,613C 753.228,615.262 748.061,619.095 744,624.5C 728.248,644.256 711.748,663.423 694.5,682C 691.97,683.422 689.303,683.755 686.5,683C 680.226,676.881 673.56,671.381 666.5,666.5C 665.625,663.459 663.625,661.625 660.5,661C 661.167,660.667 661.833,660.333 662.5,660C 658.916,658.927 655.25,658.26 651.5,658C 630.459,657.38 609.459,657.38 588.5,658C 591.167,657.333 591.167,656.667 588.5,656C 594.038,655.764 599.538,655.264 605,654.5C 616.23,655.393 626.897,655.726 637,655.5C 637.5,655 638,654.5 638.5,654C 630.62,653.104 622.787,652.27 615,651.5C 611.471,652.433 607.471,652.433 603,651.5C 597.357,654.32 591.857,654.154 586.5,651C 588,649.885 589.667,649.052 591.5,648.5C 602.652,648.699 613.819,649.032 625,649.5C 629.461,648.753 633.961,648.253 638.5,648C 639,647.5 639.5,647 640,646.5C 641.155,639.394 642.822,632.394 645,625.5C 645.333,626.167 645.667,626.833 646,627.5C 645.014,620.944 646.514,614.944 650.5,609.5C 650.789,607.782 650.456,605.948 649.5,604C 652.409,593.976 654.909,583.142 657,571.5C 658,569.833 659,568.167 660,566.5C 660.309,561.431 661.476,556.598 663.5,552C 662.244,551.583 661.577,550.75 661.5,549.5C 661.5,548.5 661.5,547.5 661.5,546.5C 662.376,546.631 663.043,546.298 663.5,545.5C 663.254,544.227 663.254,543.06 663.5,542C 664.328,541.085 665.328,540.419 666.5,540C 665.216,539.316 664.049,539.483 663,540.5C 662.667,539.5 662.333,538.5 662,537.5C 660.926,538.618 659.76,539.618 658.5,540.5C 660.011,542.838 659.677,543.504 657.5,542.5C 657.511,543.441 657.011,544.108 656,544.5C 653.579,543.635 652.412,542.301 652.5,540.5C 652.833,539.833 653.167,539.167 653.5,538.5C 656.129,537.039 658.629,535.373 661,533.5C 661.718,534.451 662.551,534.617 663.5,534C 663.167,533 662.833,532 662.5,531C 664.208,528.957 666.208,527.29 668.5,526C 668.167,525.667 667.833,525.333 667.5,525C 668.787,523.59 669.954,522.09 671,520.5C 671.073,514.209 672.406,508.209 675,502.5C 675.654,503.696 676.154,503.696 676.5,502.5C 675.478,499.075 676.144,495.908 678.5,493C 677.636,488.244 675.303,484.578 671.5,482C 674.518,482.565 677.518,482.398 680.5,481.5C 681.357,480.264 682.023,478.931 682.5,477.5C 681.233,475.629 681.233,473.796 682.5,472C 686.298,469.546 690.298,469.046 694.5,470.5C 694.33,471.822 694.663,472.989 695.5,474C 697.615,474.557 699.615,475.391 701.5,476.5C 702.086,476.291 702.586,475.957 703,475.5C 703.49,476.793 703.657,478.127 703.5,479.5C 700.833,479.5 698.167,479.5 695.5,479.5 Z"/></g>
<g><path style="opacity:1" fill="#f1f4f7" d="M 399.5,526.5 C 399.854,528.975 400.354,531.308 401,533.5C 401.333,533.167 401.667,532.833 402,532.5C 403.886,536.44 406.386,539.94 409.5,543C 406.969,543.448 404.636,544.281 402.5,545.5C 406.125,564.062 410.625,582.729 416,601.5C 419.486,616.11 422.653,630.777 425.5,645.5C 426.609,646.29 427.942,646.79 429.5,647C 443.5,647.333 457.5,647.667 471.5,648C 476.032,648.718 479.366,651.051 481.5,655C 480.181,656.988 478.347,658.155 476,658.5C 473.175,659.082 470.509,658.416 468,656.5C 447.849,657.292 427.682,657.792 407.5,658C 405.519,658.605 405.185,659.605 406.5,661C 404.5,661.333 402.5,661.667 400.5,662C 401.416,662.278 402.082,662.778 402.5,663.5C 393.208,668.608 384.874,675.108 377.5,683C 374.366,683.79 371.366,683.457 368.5,682C 349.736,659.813 330.736,637.813 311.5,616C 309.167,615 306.833,614 304.5,613C 298.804,607.082 293.471,600.915 288.5,594.5C 287.494,592.001 286.827,589.667 286.5,587.5C 289.252,585.664 292.252,584.664 295.5,584.5C 295.259,581.001 296.092,580.668 298,583.5C 299.974,580.882 301.807,581.048 303.5,584C 306.706,584.296 309.872,584.796 313,585.5C 316.088,583.885 315.588,583.218 311.5,583.5C 311.719,582.325 311.386,581.325 310.5,580.5C 309.186,581.313 308.019,582.313 307,583.5C 305.989,582.663 304.822,582.33 303.5,582.5C 303.5,581.5 303.5,580.5 303.5,579.5C 307.094,578.043 310.761,576.543 314.5,575C 313.216,573.703 313.383,572.536 315,571.5C 315.49,572.793 315.657,574.127 315.5,575.5C 316.833,575.5 318.167,575.5 319.5,575.5C 319.26,572.421 319.593,569.421 320.5,566.5C 319.833,566.167 319.167,565.833 318.5,565.5C 319.167,564.833 319.833,564.167 320.5,563.5C 320.218,561.013 320.218,558.347 320.5,555.5C 321.873,555.657 323.207,555.49 324.5,555C 326.705,553.294 329.038,551.794 331.5,550.5C 331.291,549.914 330.957,549.414 330.5,549C 331.624,548.751 332.624,548.251 333.5,547.5C 332.184,546.193 331.184,544.693 330.5,543C 333.024,541.31 335.024,539.143 336.5,536.5C 338.917,535.928 341.084,534.928 343,533.5C 345.233,528.926 347.9,524.593 351,520.5C 352.987,521.218 354.821,522.218 356.5,523.5C 358.18,521.638 359.847,519.805 361.5,518C 360.692,517.692 360.025,517.192 359.5,516.5C 362.107,515.682 364.774,515.182 367.5,515C 365.527,514.505 363.527,514.338 361.5,514.5C 361.67,513.178 361.337,512.011 360.5,511C 362.113,508.772 362.78,506.272 362.5,503.5C 363.93,503.579 365.264,503.246 366.5,502.5C 367.105,499.696 367.938,497.029 369,494.5C 370.049,495.517 371.216,495.684 372.5,495C 372.579,493.093 372.246,491.093 371.5,489C 372,488.5 372.5,488 373,487.5C 374,495.5 375,495.5 376,487.5C 377.119,490.057 377.285,492.557 376.5,495C 378.134,495.494 379.801,495.66 381.5,495.5C 383.587,499.217 385.253,503.217 386.5,507.5C 386.291,508.086 385.957,508.586 385.5,509C 386.955,511.016 388.955,511.849 391.5,511.5C 391.575,516.953 393.242,521.953 396.5,526.5C 397.527,527.791 398.527,527.791 399.5,526.5 Z"/></g>
<g><path style="opacity:1" fill="#536c6e" d="M 463.5,490.5 C 438.65,490.836 413.983,491.836 389.5,493.5C 388.596,492.791 388.263,491.791 388.5,490.5C 413.5,490.5 438.5,490.5 463.5,490.5 Z"/></g>
<g><path style="opacity:1" fill="#577174" d="M 599.5,490.5 C 624.842,490.167 650.175,490.5 675.5,491.5C 675.376,492.107 675.043,492.44 674.5,492.5C 649.5,491.833 624.5,491.167 599.5,490.5 Z"/></g>
<g><path style="opacity:1" fill="#0c3438" d="M 614.5,213.5 C 614.452,228.815 610.619,243.149 603,256.5C 599.613,260.039 595.447,261.372 590.5,260.5C 589.789,267.009 588.289,273.343 586,279.5C 583.303,283.521 580.636,287.521 578,291.5C 577.833,296.667 577.667,301.833 577.5,307C 575.328,321.919 579.328,334.752 589.5,345.5C 581.662,350.253 573.662,354.753 565.5,359C 564.333,360.167 563.167,361.333 562,362.5C 561.167,368.333 563.667,370.833 569.5,370C 580.296,364.033 590.963,357.866 601.5,351.5C 609.757,354.799 618.09,357.799 626.5,360.5C 626.079,362.91 624.746,364.743 622.5,366C 608.833,376.333 595.167,386.667 581.5,397C 576.019,395.412 571.186,396.578 567,400.5C 563.057,407.523 563.89,413.857 569.5,419.5C 563.998,435.159 562.498,451.159 565,467.5C 571.914,482.041 583.414,489.707 599.5,490.5C 624.5,491.167 649.5,491.833 674.5,492.5C 672.494,501.523 670.328,510.523 668,519.5C 664.485,526.847 659.651,533.181 653.5,538.5C 653.167,539.167 652.833,539.833 652.5,540.5C 622.673,571.161 593.006,601.994 563.5,633C 558.947,630.518 554.281,627.851 549.5,625C 545.57,623.523 541.57,622.356 537.5,621.5C 537.171,615.794 537.505,610.128 538.5,604.5C 544.003,601.823 547.336,597.49 548.5,591.5C 563.085,585.971 577.751,580.638 592.5,575.5C 598.983,581.059 605.15,580.725 611,574.5C 614.497,562.958 610.331,557.125 598.5,557C 595.5,558.667 593.167,561 591.5,564C 575.303,569.343 559.303,575.176 543.5,581.5C 541.563,580.74 539.73,579.74 538,578.5C 537.5,572.175 537.334,565.842 537.5,559.5C 544.5,558.5 548.5,554.5 549.5,547.5C 560.172,547.667 570.839,547.5 581.5,547C 586.815,543.283 586.815,539.617 581.5,536C 570.818,535.832 560.151,535.332 549.5,534.5C 547.434,528.806 543.434,525.473 537.5,524.5C 537.17,517.8 537.503,511.134 538.5,504.5C 540.5,503.167 542.167,501.5 543.5,499.5C 559.935,506.276 576.602,512.443 593.5,518C 595.288,521.656 597.622,524.989 600.5,528C 615.522,529.783 620.356,523.616 615,509.5C 609.58,504.629 603.914,504.296 598,508.5C 580.847,502.255 563.68,496.088 546.5,490C 544.009,486.876 541.175,484.043 538,481.5C 537.333,451.833 537.333,422.167 538,392.5C 548.018,388.136 552.018,380.47 550,369.5C 543.008,355.221 532.841,352.221 519.5,360.5C 513.015,367.661 511.848,375.661 516,384.5C 518.756,387.927 522.09,390.593 526,392.5C 526.833,422.172 526.667,451.839 525.5,481.5C 522.67,483.322 520.67,485.822 519.5,489C 501.97,494.764 484.636,501.097 467.5,508C 463.365,506.453 459.032,505.787 454.5,506C 446.895,509.725 444.728,515.558 448,523.5C 454.667,530.167 461.333,530.167 468,523.5C 467.946,520.809 469.113,518.976 471.5,518C 487.75,512.028 503.917,505.861 520,499.5C 521.684,501.351 523.517,503.018 525.5,504.5C 526.81,511.056 526.81,517.556 525.5,524C 520.694,526.306 517.027,529.806 514.5,534.5C 503.515,535.332 492.515,535.832 481.5,536C 476.047,540.12 476.38,543.787 482.5,547C 493.161,547.5 503.828,547.667 514.5,547.5C 516.167,553.833 520.167,557.833 526.5,559.5C 526.5,566.167 526.5,572.833 526.5,579.5C 523.999,580.826 521.332,581.326 518.5,581C 504.03,575.097 489.363,569.764 474.5,565C 471.849,562.02 468.849,559.353 465.5,557C 453.949,555.89 449.449,561.056 452,572.5C 454.76,578.297 459.26,580.463 465.5,579C 467.394,577.596 469.394,576.43 471.5,575.5C 486.788,581.04 502.121,586.373 517.5,591.5C 517.677,597.521 520.51,601.854 526,604.5C 526.499,610.157 526.666,615.824 526.5,621.5C 517.471,622.681 509.805,626.514 503.5,633C 502.5,633.667 501.5,633.667 500.5,633C 466.236,597.907 432.569,562.407 399.5,526.5C 394.661,515.989 391.328,504.989 389.5,493.5C 413.983,491.836 438.65,490.836 463.5,490.5C 491.406,487.752 503.573,472.419 500,444.5C 497.896,435.552 496.563,426.552 496,417.5C 499.31,413.785 500.31,409.452 499,404.5C 495.139,397.542 489.306,395.042 481.5,397C 468.958,386.952 456.291,377.118 443.5,367.5C 441.396,365.901 439.396,364.068 437.5,362C 445.462,358.104 453.629,354.604 462,351.5C 472.237,358.038 482.737,364.205 493.5,370C 499.333,370.833 501.833,368.333 501,362.5C 500.167,361.667 499.333,360.833 498.5,360C 490.334,355.418 482.334,350.585 474.5,345.5C 484.786,334.379 488.786,321.213 486.5,306C 486.333,300.5 486.167,295 486,289.5C 478.005,281.507 473.838,271.841 473.5,260.5C 469.161,261.154 465.327,260.154 462,257.5C 452.601,243.497 448.934,228.163 451,211.5C 453.783,207.527 457.616,205.861 462.5,206.5C 457.484,184.365 460.317,163.365 471,143.5C 490.721,117.141 516.888,107.308 549.5,114C 578.651,121.46 596.151,139.96 602,169.5C 602.619,181.846 602.452,194.179 601.5,206.5C 604.32,206.248 606.986,206.748 609.5,208C 611.3,209.812 612.967,211.645 614.5,213.5 Z"/></g>
<g><path style="opacity:1" fill="#0c353a" d="M 368.5,479.5 C 369.376,479.369 370.043,479.702 370.5,480.5C 344.859,514.642 319.025,548.642 293,582.5C 287.309,575.644 281.809,568.644 276.5,561.5C 292.833,540.833 309.167,520.167 325.5,499.5C 335.452,499.21 340.785,494.21 341.5,484.5C 350.721,483.354 359.721,481.688 368.5,479.5 Z"/></g>
<g><path style="opacity:1" fill="#0d3639" d="M 695.5,479.5 C 704.272,481.729 713.272,483.395 722.5,484.5C 722.316,494.829 727.149,499.162 737,497.5C 753.23,519.453 770.063,540.953 787.5,562C 782.636,568.355 777.636,574.522 772.5,580.5C 771.172,579.493 770.172,578.16 769.5,576.5C 770.815,574.231 771.982,571.898 773,569.5C 773.333,570.167 773.667,570.833 774,571.5C 775.965,568.366 778.131,565.366 780.5,562.5C 778.737,562.694 776.903,562.694 775,562.5C 774,563.5 773,564.5 772,565.5C 769.721,563.438 767.388,562.105 765,561.5C 764.833,561.167 764.667,560.833 764.5,560.5C 767.889,559.616 769.556,557.449 769.5,554C 768.055,550.111 767.388,546.277 767.5,542.5C 766.554,542.013 765.554,541.68 764.5,541.5C 760.307,543.066 755.974,543.732 751.5,543.5C 751.817,540.428 751.484,537.428 750.5,534.5C 749.522,534.977 748.689,535.643 748,536.5C 747.86,539.043 747.194,541.377 746,543.5C 743.463,539.903 741.296,536.069 739.5,532C 740.303,528.196 742.637,526.196 746.5,526C 741.192,525.281 736.692,526.781 733,530.5C 731.56,529.07 731.226,527.403 732,525.5C 733.003,527.935 733.503,527.602 733.5,524.5C 733.43,523.228 733.097,522.062 732.5,521C 734.479,522.301 736.812,523.134 739.5,523.5C 738.756,519.881 738.423,516.215 738.5,512.5C 737.5,512.5 736.5,512.5 735.5,512.5C 735.719,513.675 735.386,514.675 734.5,515.5C 734.167,515 733.833,514.5 733.5,514C 734.628,512.532 735.294,510.865 735.5,509C 734.802,504.968 733.469,504.635 731.5,508C 731.735,508.873 732.069,509.707 732.5,510.5C 731.756,513.443 731.256,516.443 731,519.5C 729.442,517.232 727.276,516.066 724.5,516C 722.189,513.399 719.189,510.733 715.5,508C 716.167,507.333 716.833,506.667 717.5,506C 716.081,502.414 713.748,499.581 710.5,497.5C 711.186,495.936 711.019,494.269 710,492.5C 709.667,493.5 709.333,494.5 709,495.5C 708.208,493.413 707.041,491.579 705.5,490C 704.002,489.415 703.002,489.915 702.5,491.5C 698.982,488.14 695.982,484.307 693.5,480C 694.094,479.536 694.761,479.369 695.5,479.5 Z"/></g>
<g><path style="opacity:1" fill="#e9f1f5" d="M 652.5,540.5 C 652.412,542.301 653.579,543.635 656,544.5C 657.011,544.108 657.511,543.441 657.5,542.5C 659.677,543.504 660.011,542.838 658.5,540.5C 659.76,539.618 660.926,538.618 662,537.5C 662.333,538.5 662.667,539.5 663,540.5C 664.049,539.483 665.216,539.316 666.5,540C 665.328,540.419 664.328,541.085 663.5,542C 663.254,543.06 663.254,544.227 663.5,545.5C 663.043,546.298 662.376,546.631 661.5,546.5C 634.262,575.908 606.429,604.908 578,633.5C 575.274,636.717 572.774,640.05 570.5,643.5C 571.9,647.533 573.4,651.533 575,655.5C 580.253,650.623 586.42,647.456 593.5,646C 608.178,645.833 622.845,645.333 637.5,644.5C 645.055,612.612 653.055,580.946 661.5,549.5C 661.577,550.75 662.244,551.583 663.5,552C 661.476,556.598 660.309,561.431 660,566.5C 659,568.167 658,569.833 657,571.5C 654.909,583.142 652.409,593.976 649.5,604C 650.456,605.948 650.789,607.782 650.5,609.5C 646.514,614.944 645.014,620.944 646,627.5C 645.667,626.833 645.333,626.167 645,625.5C 642.822,632.394 641.155,639.394 640,646.5C 639.5,647 639,647.5 638.5,648C 633.961,648.253 629.461,648.753 625,649.5C 613.819,649.032 602.652,648.699 591.5,648.5C 589.667,649.052 588,649.885 586.5,651C 591.857,654.154 597.357,654.32 603,651.5C 607.471,652.433 611.471,652.433 615,651.5C 622.787,652.27 630.62,653.104 638.5,654C 638,654.5 637.5,655 637,655.5C 626.897,655.726 616.23,655.393 605,654.5C 599.538,655.264 594.038,655.764 588.5,656C 591.167,656.667 591.167,657.333 588.5,658C 609.459,657.38 630.459,657.38 651.5,658C 655.25,658.26 658.916,658.927 662.5,660C 661.833,660.333 661.167,660.667 660.5,661C 663.625,661.625 665.625,663.459 666.5,666.5C 660.663,663.054 654.33,660.887 647.5,660C 629.167,659.333 610.833,659.333 592.5,660C 585.989,661.882 583.822,666.049 586,672.5C 587.167,673.667 588.333,674.833 589.5,676C 608.5,676.333 627.5,676.667 646.5,677C 649.477,678.145 651.144,680.312 651.5,683.5C 651.439,685.653 650.439,686.986 648.5,687.5C 648.276,679.735 645.942,678.901 641.5,685C 627.5,685.667 613.5,685.667 599.5,685C 599,684.5 598.5,684 598,683.5C 596.333,683.833 594.667,684.167 593,684.5C 592.5,684 592,683.5 591.5,683C 596.167,682.667 600.833,682.333 605.5,682C 616.979,681.754 628.312,681.587 639.5,681.5C 639.5,680.5 639.5,679.5 639.5,678.5C 622.632,678.188 605.798,678.521 589,679.5C 585.725,677.65 582.559,675.65 579.5,673.5C 578.784,674.311 577.95,674.978 577,675.5C 574.901,674.713 572.734,674.38 570.5,674.5C 570.657,675.873 570.49,677.207 570,678.5C 569.586,678.043 569.086,677.709 568.5,677.5C 567.702,679.078 567.202,680.744 567,682.5C 566.586,682.043 566.086,681.709 565.5,681.5C 562.813,684.15 560.146,684.15 557.5,681.5C 565.908,668.482 565.408,655.816 556,643.5C 547.281,634.692 536.781,631.525 524.5,634C 509.38,639.078 501.713,649.578 501.5,665.5C 500.698,666.952 500.198,668.618 500,670.5C 499.333,669.167 498.667,669.167 498,670.5C 497.696,668.559 496.863,666.893 495.5,665.5C 496.025,664.808 496.692,664.308 497.5,664C 496.773,662.601 496.273,661.101 496,659.5C 493.975,662.457 491.142,663.79 487.5,663.5C 487.716,665.681 486.883,667.347 485,668.5C 484.667,667.5 484.333,666.5 484,665.5C 483.585,667.291 482.585,668.624 481,669.5C 480.505,671.473 480.338,673.473 480.5,675.5C 479.448,675.351 478.448,675.517 477.5,676C 476.289,680.044 473.622,682.544 469.5,683.5C 467.945,683.278 466.611,682.611 465.5,681.5C 464.571,682.689 464.238,684.022 464.5,685.5C 448.376,686.718 432.376,686.385 416.5,684.5C 417.242,683.713 418.075,683.047 419,682.5C 422.275,682.603 425.942,682.937 430,683.5C 430.5,683 431,682.5 431.5,682C 442.167,681.667 452.833,681.333 463.5,681C 464.833,680.333 464.833,679.667 463.5,679C 447.833,678.333 432.167,678.333 416.5,679C 415.833,681.333 415.167,683.667 414.5,686C 414.833,686.333 415.167,686.667 415.5,687C 436.447,687.646 457.28,687.479 478,686.5C 479.728,686.454 481.228,686.954 482.5,688C 481.584,688.278 480.918,688.778 480.5,689.5C 459.164,689.667 437.831,689.5 416.5,689C 409.833,685 409.833,681 416.5,677C 435.833,676.667 455.167,676.333 474.5,676C 479.535,672.987 480.702,668.82 478,663.5C 476.421,661.959 474.587,660.792 472.5,660C 453.5,659.333 434.5,659.333 415.5,660C 411.105,661.015 406.771,662.182 402.5,663.5C 402.082,662.778 401.416,662.278 400.5,662C 402.5,661.667 404.5,661.333 406.5,661C 405.185,659.605 405.519,658.605 407.5,658C 427.682,657.792 447.849,657.292 468,656.5C 470.509,658.416 473.175,659.082 476,658.5C 478.347,658.155 480.181,656.988 481.5,655C 479.366,651.051 476.032,648.718 471.5,648C 457.5,647.667 443.5,647.333 429.5,647C 427.942,646.79 426.609,646.29 425.5,645.5C 439.837,645.333 454.171,645.5 468.5,646C 476.507,647.005 483.507,650.172 489.5,655.5C 491.067,651.635 492.734,647.802 494.5,644C 470.077,616.907 444.91,590.407 419,564.5C 413.291,558.295 407.791,551.961 402.5,545.5C 404.636,544.281 406.969,543.448 409.5,543C 406.386,539.94 403.886,536.44 402,532.5C 401.667,532.833 401.333,533.167 401,533.5C 400.354,531.308 399.854,528.975 399.5,526.5C 432.569,562.407 466.236,597.907 500.5,633C 501.5,633.667 502.5,633.667 503.5,633C 509.805,626.514 517.471,622.681 526.5,621.5C 526.666,615.824 526.499,610.157 526,604.5C 520.51,601.854 517.677,597.521 517.5,591.5C 502.121,586.373 486.788,581.04 471.5,575.5C 469.394,576.43 467.394,577.596 465.5,579C 459.26,580.463 454.76,578.297 452,572.5C 449.449,561.056 453.949,555.89 465.5,557C 468.849,559.353 471.849,562.02 474.5,565C 489.363,569.764 504.03,575.097 518.5,581C 521.332,581.326 523.999,580.826 526.5,579.5C 526.5,572.833 526.5,566.167 526.5,559.5C 520.167,557.833 516.167,553.833 514.5,547.5C 503.828,547.667 493.161,547.5 482.5,547C 476.38,543.787 476.047,540.12 481.5,536C 492.515,535.832 503.515,535.332 514.5,534.5C 517.027,529.806 520.694,526.306 525.5,524C 526.81,517.556 526.81,511.056 525.5,504.5C 523.517,503.018 521.684,501.351 520,499.5C 503.917,505.861 487.75,512.028 471.5,518C 469.113,518.976 467.946,520.809 468,523.5C 461.333,530.167 454.667,530.167 448,523.5C 444.728,515.558 446.895,509.725 454.5,506C 459.032,505.787 463.365,506.453 467.5,508C 484.636,501.097 501.97,494.764 519.5,489C 520.67,485.822 522.67,483.322 525.5,481.5C 526.667,451.839 526.833,422.172 526,392.5C 522.09,390.593 518.756,387.927 516,384.5C 511.848,375.661 513.015,367.661 519.5,360.5C 532.841,352.221 543.008,355.221 550,369.5C 552.018,380.47 548.018,388.136 538,392.5C 537.333,422.167 537.333,451.833 538,481.5C 541.175,484.043 544.009,486.876 546.5,490C 563.68,496.088 580.847,502.255 598,508.5C 603.914,504.296 609.58,504.629 615,509.5C 620.356,523.616 615.522,529.783 600.5,528C 597.622,524.989 595.288,521.656 593.5,518C 576.602,512.443 559.935,506.276 543.5,499.5C 542.167,501.5 540.5,503.167 538.5,504.5C 537.503,511.134 537.17,517.8 537.5,524.5C 543.434,525.473 547.434,528.806 549.5,534.5C 560.151,535.332 570.818,535.832 581.5,536C 586.815,539.617 586.815,543.283 581.5,547C 570.839,547.5 560.172,547.667 549.5,547.5C 548.5,554.5 544.5,558.5 537.5,559.5C 537.334,565.842 537.5,572.175 538,578.5C 539.73,579.74 541.563,580.74 543.5,581.5C 559.303,575.176 575.303,569.343 591.5,564C 593.167,561 595.5,558.667 598.5,557C 610.331,557.125 614.497,562.958 611,574.5C 605.15,580.725 598.983,581.059 592.5,575.5C 577.751,580.638 563.085,585.971 548.5,591.5C 547.336,597.49 544.003,601.823 538.5,604.5C 537.505,610.128 537.171,615.794 537.5,621.5C 541.57,622.356 545.57,623.523 549.5,625C 554.281,627.851 558.947,630.518 563.5,633C 593.006,601.994 622.673,571.161 652.5,540.5 Z"/></g>
<g><path style="opacity:1" fill="#0b3438" d="M 850.5,587.5 C 848.523,593.792 845.69,599.792 842,605.5C 800.108,647.394 757.608,688.56 714.5,729C 707.767,733.245 700.434,735.912 692.5,737C 664.192,736.014 635.858,735.514 607.5,735.5C 602.154,736.146 597.154,735.312 592.5,733C 587.765,727.002 588.765,722.335 595.5,719C 612.833,718.667 630.167,718.333 647.5,718C 652.833,714.333 652.833,710.667 647.5,707C 624.167,706.667 600.833,706.333 577.5,706C 570.863,700.571 570.863,695.237 577.5,690C 600.167,689.667 622.833,689.333 645.5,689C 646.737,688.768 647.737,688.268 648.5,687.5C 650.439,686.986 651.439,685.653 651.5,683.5C 651.144,680.312 649.477,678.145 646.5,677C 627.5,676.667 608.5,676.333 589.5,676C 588.333,674.833 587.167,673.667 586,672.5C 583.822,666.049 585.989,661.882 592.5,660C 610.833,659.333 629.167,659.333 647.5,660C 654.33,660.887 660.663,663.054 666.5,666.5C 673.56,671.381 680.226,676.881 686.5,683C 689.303,683.755 691.97,683.422 694.5,682C 711.748,663.423 728.248,644.256 744,624.5C 748.061,619.095 753.228,615.262 759.5,613C 772.667,597.833 785.833,582.667 799,567.5C 801.071,565.545 801.738,563.212 801,560.5C 798.999,557.669 796.833,555.003 794.5,552.5C 777.617,531.78 761.283,510.613 745.5,489C 759.131,490.199 769.798,485.365 777.5,474.5C 778.657,472.862 779.824,471.196 781,469.5C 803.775,499.609 825.775,530.276 847,561.5C 850.132,569.872 851.299,578.539 850.5,587.5 Z"/></g>
<g><path style="opacity:1" fill="#0f333a" d="M 772.5,580.5 C 772.217,581.289 771.717,581.956 771,582.5C 767.635,578.307 764.135,574.307 760.5,570.5C 741.167,544.167 721.833,517.833 702.5,491.5C 703.002,489.915 704.002,489.415 705.5,490C 707.041,491.579 708.208,493.413 709,495.5C 709.333,494.5 709.667,493.5 710,492.5C 711.019,494.269 711.186,495.936 710.5,497.5C 713.748,499.581 716.081,502.414 717.5,506C 716.833,506.667 716.167,507.333 715.5,508C 719.189,510.733 722.189,513.399 724.5,516C 727.276,516.066 729.442,517.232 731,519.5C 731.256,516.443 731.756,513.443 732.5,510.5C 732.069,509.707 731.735,508.873 731.5,508C 733.469,504.635 734.802,504.968 735.5,509C 735.294,510.865 734.628,512.532 733.5,514C 733.833,514.5 734.167,515 734.5,515.5C 735.386,514.675 735.719,513.675 735.5,512.5C 736.5,512.5 737.5,512.5 738.5,512.5C 738.423,516.215 738.756,519.881 739.5,523.5C 736.812,523.134 734.479,522.301 732.5,521C 733.097,522.062 733.43,523.228 733.5,524.5C 733.503,527.602 733.003,527.935 732,525.5C 731.226,527.403 731.56,529.07 733,530.5C 736.692,526.781 741.192,525.281 746.5,526C 742.637,526.196 740.303,528.196 739.5,532C 741.296,536.069 743.463,539.903 746,543.5C 747.194,541.377 747.86,539.043 748,536.5C 748.689,535.643 749.522,534.977 750.5,534.5C 751.484,537.428 751.817,540.428 751.5,543.5C 755.974,543.732 760.307,543.066 764.5,541.5C 765.554,541.68 766.554,542.013 767.5,542.5C 767.388,546.277 768.055,550.111 769.5,554C 769.556,557.449 767.889,559.616 764.5,560.5C 764.667,560.833 764.833,561.167 765,561.5C 767.388,562.105 769.721,563.438 772,565.5C 773,564.5 774,563.5 775,562.5C 776.903,562.694 778.737,562.694 780.5,562.5C 778.131,565.366 775.965,568.366 774,571.5C 773.667,570.833 773.333,570.167 773,569.5C 771.982,571.898 770.815,574.231 769.5,576.5C 770.172,578.16 771.172,579.493 772.5,580.5 Z"/></g>
<g><path style="opacity:1" fill="#0c3439" d="M 285.5,471.5 C 292.73,483.956 303.73,489.956 318.5,489.5C 300.573,513.597 282.073,537.263 263,560.5C 262.333,561.833 262.333,563.167 263,564.5C 271.74,574.398 280.24,584.398 288.5,594.5C 293.471,600.915 298.804,607.082 304.5,613C 306.833,614 309.167,615 311.5,616C 330.736,637.813 349.736,659.813 368.5,682C 371.366,683.457 374.366,683.79 377.5,683C 384.874,675.108 393.208,668.608 402.5,663.5C 406.771,662.182 411.105,661.015 415.5,660C 434.5,659.333 453.5,659.333 472.5,660C 474.587,660.792 476.421,661.959 478,663.5C 480.702,668.82 479.535,672.987 474.5,676C 455.167,676.333 435.833,676.667 416.5,677C 409.833,681 409.833,685 416.5,689C 437.831,689.5 459.164,689.667 480.5,689.5C 489.611,690.723 492.111,695.39 488,703.5C 487.097,704.701 485.931,705.535 484.5,706C 461.5,706.333 438.5,706.667 415.5,707C 411.513,710.62 411.513,714.287 415.5,718C 434.232,718.038 452.898,718.705 471.5,720C 476.34,726.621 475.006,731.621 467.5,735C 438.792,735.036 410.125,735.869 381.5,737.5C 367.46,738.986 355.127,735.153 344.5,726C 303.695,686.863 263.195,647.363 223,607.5C 212.477,593.749 210.143,578.749 216,562.5C 237.585,531.082 259.751,500.082 282.5,469.5C 283.518,470.193 284.518,470.859 285.5,471.5 Z"/></g>
<g><path style="opacity:1" fill="#0b3438" d="M 661.5,546.5 C 661.5,547.5 661.5,548.5 661.5,549.5C 653.055,580.946 645.055,612.612 637.5,644.5C 622.845,645.333 608.178,645.833 593.5,646C 586.42,647.456 580.253,650.623 575,655.5C 573.4,651.533 571.9,647.533 570.5,643.5C 572.774,640.05 575.274,636.717 578,633.5C 606.429,604.908 634.262,575.908 661.5,546.5 Z"/></g>
<g><path style="opacity:1" fill="#e9f1fa" d="M 850.5,587.5 C 850.613,594.116 850.613,600.783 850.5,607.5C 848.868,610.078 847.201,612.745 845.5,615.5C 843.866,615.968 842.7,616.968 842,618.5C 840.913,616.068 840.413,616.402 840.5,619.5C 837.718,619.773 835.551,621.106 834,623.5C 832.838,622.813 831.672,622.647 830.5,623C 831.197,625.709 831.53,628.376 831.5,631C 829.866,631.494 828.199,631.66 826.5,631.5C 826.5,632.5 826.5,633.5 826.5,634.5C 823.195,636.117 819.862,637.783 816.5,639.5C 816.814,643.193 815.148,645.527 811.5,646.5C 808.269,649.227 805.603,652.394 803.5,656C 802.451,656.492 801.451,656.326 800.5,655.5C 799.702,657.078 799.202,658.744 799,660.5C 795.209,663.658 791.709,667.158 788.5,671C 784.878,670.621 782.711,672.121 782,675.5C 780.758,676.872 779.258,677.872 777.5,678.5C 775,681.5 772.5,684.5 770,687.5C 766.185,687.614 763.685,689.781 762.5,694C 756.121,697.38 751.454,702.38 748.5,709C 746.508,709.574 745.008,710.741 744,712.5C 743.667,711.833 743.333,711.167 743,710.5C 742.667,711.833 742.333,713.167 742,714.5C 740.989,713.663 739.822,713.33 738.5,713.5C 738.5,714.5 738.5,715.5 738.5,716.5C 733.728,717.45 731.228,720.45 731,725.5C 728.439,730.458 726.772,730.458 726,725.5C 724.901,728.039 723.234,728.705 721,727.5C 720.53,729.774 719.53,731.774 718,733.5C 717.586,733.043 717.086,732.709 716.5,732.5C 716.167,733.167 715.833,733.833 715.5,734.5C 713.162,732.989 712.496,733.323 713.5,735.5C 712.078,736.547 710.578,736.547 709,735.5C 706.379,736.414 703.879,737.581 701.5,739C 690.608,738.408 679.774,738.574 669,739.5C 664.071,738.971 659.238,738.138 654.5,737C 638.661,736.831 622.995,736.331 607.5,735.5C 635.858,735.514 664.192,736.014 692.5,737C 700.434,735.912 707.767,733.245 714.5,729C 757.608,688.56 800.108,647.394 842,605.5C 845.69,599.792 848.523,593.792 850.5,587.5 Z"/></g>
<g><path style="opacity:1" fill="#0d3439" d="M 402.5,545.5 C 407.791,551.961 413.291,558.295 419,564.5C 444.91,590.407 470.077,616.907 494.5,644C 492.734,647.802 491.067,651.635 489.5,655.5C 483.507,650.172 476.507,647.005 468.5,646C 454.171,645.5 439.837,645.333 425.5,645.5C 422.653,630.777 419.486,616.11 416,601.5C 410.625,582.729 406.125,564.062 402.5,545.5 Z"/></g>
<g><path style="opacity:1" fill="#0d3438" d="M 557.5,681.5 C 546.047,693.091 532.713,695.924 517.5,690C 507.939,684.603 502.605,676.437 501.5,665.5C 501.713,649.578 509.38,639.078 524.5,634C 536.781,631.525 547.281,634.692 556,643.5C 565.408,655.816 565.908,668.482 557.5,681.5 Z"/></g>
<g><path style="opacity:1" fill="#11393e" d="M 313.5,757.5 C 321.271,756.295 326.438,759.295 329,766.5C 328.961,778.541 323.127,783.041 311.5,780C 306.312,776.105 304.478,770.939 306,764.5C 307.742,761.254 310.242,758.921 313.5,757.5 Z"/></g>
<g><path style="opacity:1" fill="#0b363a" d="M 241.5,767.5 C 247.842,767.334 254.175,767.5 260.5,768C 271.574,794.211 282.074,820.711 292,847.5C 293.004,850.993 292.504,854.159 290.5,857C 284.833,857.667 279.167,857.667 273.5,857C 271.029,853.101 269.029,848.934 267.5,844.5C 255.833,843.167 244.167,843.167 232.5,844.5C 231.293,848.287 229.793,851.954 228,855.5C 227.25,856.126 226.416,856.626 225.5,857C 220.5,857.667 215.5,857.667 210.5,857C 207.651,854.441 206.817,851.274 208,847.5C 218.484,821.898 228.818,796.231 239,770.5C 240.045,769.627 240.878,768.627 241.5,767.5 Z"/></g>
<g><path style="opacity:1" fill="#0d373b" d="M 389.5,768.5 C 404.905,768.048 420.238,768.548 435.5,770C 454.885,779.808 460.718,794.974 453,815.5C 448.631,823.537 442.131,829.037 433.5,832C 424.88,833.252 416.213,833.752 407.5,833.5C 407.925,840.615 407.425,847.615 406,854.5C 403.521,856.917 400.521,857.917 397,857.5C 393.204,857.862 389.871,856.862 387,854.5C 386.333,826.833 386.333,799.167 387,771.5C 388.045,770.627 388.878,769.627 389.5,768.5 Z"/></g>
<g><path style="opacity:1" fill="#ecf3f7" d="M 407.5,787.5 C 414.241,787.171 420.908,787.671 427.5,789C 433.667,792.845 435.834,798.345 434,805.5C 432.402,810.099 429.235,812.932 424.5,814C 418.843,814.499 413.176,814.666 407.5,814.5C 407.5,805.5 407.5,796.5 407.5,787.5 Z"/></g>
<g><path style="opacity:1" fill="#0f393d" d="M 311.5,784.5 C 315.846,784.334 320.179,784.501 324.5,785C 325.931,785.465 327.097,786.299 328,787.5C 328.667,809.833 328.667,832.167 328,854.5C 327.167,855.333 326.333,856.167 325.5,857C 320.167,857.667 314.833,857.667 309.5,857C 308.299,856.097 307.465,854.931 307,853.5C 306.333,832.167 306.333,810.833 307,789.5C 307.74,787.03 309.24,785.363 311.5,784.5 Z"/></g>
<g><path style="opacity:1" fill="#0e373b" d="M 603.5,767.5 C 607.182,767.335 610.848,767.501 614.5,768C 615.333,768.833 616.167,769.667 617,770.5C 618.404,776.044 618.904,781.71 618.5,787.5C 623.267,787.191 627.934,787.691 632.5,789C 636.354,793.765 636.354,798.598 632.5,803.5C 627.9,804.443 623.233,804.777 618.5,804.5C 618.333,815.505 618.5,826.505 619,837.5C 619.5,838.667 620.333,839.5 621.5,840C 632.815,840.315 635.815,845.315 630.5,855C 615.751,861.363 605.585,857.196 600,842.5C 599.5,829.838 599.333,817.171 599.5,804.5C 589.753,804.898 586.92,800.565 591,791.5C 593.846,789.743 596.512,787.743 599,785.5C 599.333,780.833 599.667,776.167 600,771.5C 601.376,770.295 602.542,768.962 603.5,767.5 Z"/></g>
<g><path style="opacity:1" fill="#0d373a" d="M 556.5,787.5 C 563.401,787.314 570.068,788.48 576.5,791C 580.538,796.133 580.205,801.133 575.5,806C 570.762,804.874 565.928,803.707 561,802.5C 553.089,803.458 551.589,806.958 556.5,813C 564.128,814.876 571.462,817.543 578.5,821C 588.186,832.216 587.519,842.883 576.5,853C 563.492,860.268 550.492,860.268 537.5,853C 534.231,849.547 533.731,845.714 536,841.5C 537.117,839.876 538.617,838.876 540.5,838.5C 545.988,840.664 551.655,841.998 557.5,842.5C 561.18,842.941 564.347,841.941 567,839.5C 567.536,837.433 567.036,835.599 565.5,834C 559.92,831.806 554.253,829.806 548.5,828C 535.146,821.775 531.646,811.941 538,798.5C 542.82,792.348 548.987,788.682 556.5,787.5 Z"/></g>
<g><path style="opacity:1" fill="#0c363a" d="M 791.5,787.5 C 816.676,787.179 829.51,799.512 830,824.5C 829.705,826.931 828.538,828.764 826.5,830C 812.155,830.167 797.822,830.667 783.5,831.5C 787.745,840.289 794.745,843.789 804.5,842C 807.595,841.286 810.595,840.286 813.5,839C 817.672,838.132 820.838,839.632 823,843.5C 824.293,847.582 823.126,850.749 819.5,853C 801.951,862.145 786.118,859.979 772,846.5C 762.809,832.243 762.142,817.577 770,802.5C 775.416,794.905 782.583,789.905 791.5,787.5 Z"/></g>
<g><path style="opacity:1" fill="#e5f0f4" d="M 792.5,804.5 C 800.498,803.213 806.665,805.88 811,812.5C 811.49,813.793 811.657,815.127 811.5,816.5C 802.167,816.5 792.833,816.5 783.5,816.5C 784.961,811.369 787.961,807.369 792.5,804.5 Z"/></g>
<g><path style="opacity:1" fill="#0f373b" d="M 748.5,787.5 C 762.905,787.062 766.571,793.229 759.5,806C 756.527,806.105 753.527,805.938 750.5,805.5C 744.632,805.197 740.798,807.863 739,813.5C 737.723,826.431 737.057,839.431 737,852.5C 734.475,855.965 730.975,857.632 726.5,857.5C 723.675,857.881 721.509,856.881 720,854.5C 718.856,844.094 718.356,833.594 718.5,823C 718.356,812.406 718.856,801.906 720,791.5C 725.333,787.5 730.667,787.5 736,791.5C 736.483,792.448 736.649,793.448 736.5,794.5C 740.484,792.173 744.484,789.84 748.5,787.5 Z"/></g>
<g><path style="opacity:1" fill="#e3eff5" d="M 249.5,799.5 C 253.394,807.158 256.727,815.158 259.5,823.5C 253.132,823.83 246.798,823.496 240.5,822.5C 243.715,814.843 246.715,807.176 249.5,799.5 Z"/></g>
<g><path style="opacity:1" fill="#0d373a" d="M 489.5,787.5 C 505.947,786.795 517.781,793.795 525,808.5C 531.764,828.888 525.931,844.388 507.5,855C 486.312,862.158 470.812,855.658 461,835.5C 455.372,810.413 464.872,794.413 489.5,787.5 Z"/></g>
<g><path style="opacity:1" fill="#ecf3f6" d="M 489.5,804.5 C 499.317,803.812 505.817,808.145 509,817.5C 510.485,837.028 501.985,843.861 483.5,838C 476.577,829.43 475.744,820.263 481,810.5C 483.637,808.109 486.47,806.109 489.5,804.5 Z"/></g>
<g><path style="opacity:1" fill="#0c3639" d="M 648.5,788.5 C 652.514,788.334 656.514,788.501 660.5,789C 661.333,789.833 662.167,790.667 663,791.5C 663.333,804.833 663.667,818.167 664,831.5C 665.037,836.703 668.204,839.703 673.5,840.5C 680.443,839.784 684.943,836.118 687,829.5C 687.333,816.833 687.667,804.167 688,791.5C 690.653,789.059 693.82,788.059 697.5,788.5C 700.948,788.005 703.781,789.005 706,791.5C 706.667,812.167 706.667,832.833 706,853.5C 701.8,857.714 696.966,858.548 691.5,856C 689.226,853.656 688.059,850.822 688,847.5C 680.275,857.182 670.441,860.015 658.5,856C 650.685,851.892 646.185,845.392 645,836.5C 644.333,821.833 644.333,807.167 645,792.5C 646.376,791.295 647.542,789.962 648.5,788.5 Z"/></g>
<g><path style="opacity:1" fill="#0e3a3e" d="M 471.5,888.5 C 481.083,888.182 490.583,888.515 500,889.5C 500.711,891.899 500.544,894.232 499.5,896.5C 492.532,897.497 485.532,897.83 478.5,897.5C 478.5,900.5 478.5,903.5 478.5,906.5C 483.833,906.5 489.167,906.5 494.5,906.5C 494.768,909.119 494.435,911.619 493.5,914C 488.511,914.499 483.511,914.666 478.5,914.5C 478.5,917.5 478.5,920.5 478.5,923.5C 485.755,923.187 492.921,923.52 500,924.5C 500.769,927.099 500.602,929.599 499.5,932C 489.786,932.807 480.119,932.641 470.5,931.5C 469.749,930.624 469.249,929.624 469,928.5C 468.333,915.833 468.333,903.167 469,890.5C 469.995,889.934 470.828,889.267 471.5,888.5 Z"/></g>
<g><path style="opacity:1" fill="#0d3b3e" d="M 378.5,887.5 C 386.171,886.825 392.504,889.325 397.5,895C 395.277,896.733 392.944,898.233 390.5,899.5C 381.557,894.538 374.724,896.538 370,905.5C 369.241,921.411 376.241,926.411 391,920.5C 394.209,922.024 396.209,924.357 397,927.5C 385.833,934.736 375.167,934.069 365,925.5C 354.588,907.352 359.088,894.685 378.5,887.5 Z"/></g>
<g><path style="opacity:1" fill="#0e3c3f" d="M 534.5,887.5 C 539.034,887.267 543.368,888.1 547.5,890C 549.64,890.973 551.307,892.473 552.5,894.5C 550.833,896.833 548.833,898.833 546.5,900.5C 536.837,893.746 529.67,895.746 525,906.5C 523.361,916.24 527.361,921.907 537,923.5C 540.387,923.204 543.554,922.204 546.5,920.5C 548.808,921.641 550.641,923.308 552,925.5C 552.617,926.449 552.451,927.282 551.5,928C 535.322,937.162 523.489,933.329 516,916.5C 513.587,901.122 519.754,891.456 534.5,887.5 Z"/></g>
<g><path style="opacity:1" fill="#0b3d3d" d="M 668.5,888.5 C 675.841,888.334 683.174,888.5 690.5,889C 699.301,892.096 702.801,898.263 701,907.5C 699.414,910.919 697.248,913.919 694.5,916.5C 696.833,921.167 699.167,925.833 701.5,930.5C 698.792,932.436 695.792,932.936 692.5,932C 689.529,927.893 687.196,923.393 685.5,918.5C 682.572,917.516 679.572,917.183 676.5,917.5C 676.879,922.297 676.379,926.964 675,931.5C 672.333,932.833 669.667,932.833 667,931.5C 666.833,924.5 666.667,917.5 666.5,910.5C 666.535,902.931 667.202,895.598 668.5,888.5 Z"/></g>
<g><path style="opacity:1" fill="#0e3a3e" d="M 620.5,888.5 C 630.19,888.168 639.856,888.502 649.5,889.5C 651.094,892.624 650.428,895.124 647.5,897C 641.175,897.5 634.842,897.666 628.5,897.5C 628.5,900.5 628.5,903.5 628.5,906.5C 633.833,906.5 639.167,906.5 644.5,906.5C 644.808,908.924 644.474,911.257 643.5,913.5C 638.565,914.448 633.565,914.781 628.5,914.5C 628.5,917.5 628.5,920.5 628.5,923.5C 635.948,922.892 643.115,923.559 650,925.5C 650.896,928.025 650.396,930.192 648.5,932C 638.922,932.818 629.422,932.651 620,931.5C 618.868,924.434 618.368,917.267 618.5,910C 618.667,903.5 618.833,897 619,890.5C 619.717,889.956 620.217,889.289 620.5,888.5 Z"/></g>
<g><path style="opacity:1" fill="#e5f0f3" d="M 676.5,897.5 C 681.179,897.334 685.845,897.501 690.5,898C 691.61,900.737 691.777,903.571 691,906.5C 690.612,907.428 689.945,908.095 689,908.5C 684.889,909.404 680.722,909.737 676.5,909.5C 676.5,905.5 676.5,901.5 676.5,897.5 Z"/></g>
<g><path style="opacity:1" fill="#083738" d="M 449.5,890.5 C 449.434,903.321 449.434,916.321 449.5,929.5C 448.027,932.247 445.694,933.081 442.5,932C 441.177,931.184 440.511,930.017 440.5,928.5C 440.5,923.833 440.5,919.167 440.5,914.5C 434.5,914.5 428.5,914.5 422.5,914.5C 422.5,918.833 422.5,923.167 422.5,927.5C 422.714,929.144 422.38,930.644 421.5,932C 418.901,932.769 416.401,932.602 414,931.5C 413.167,917.488 413.334,903.488 414.5,889.5C 417.034,888.212 419.534,888.212 422,889.5C 422.499,894.823 422.666,900.156 422.5,905.5C 428.5,905.5 434.5,905.5 440.5,905.5C 440.334,900.156 440.501,894.823 441,889.5C 442.231,888.892 443.564,888.559 445,888.5C 447.008,888.307 448.508,888.974 449.5,890.5 Z"/></g>
<g><path style="opacity:1" fill="#57777a" d="M 449.5,890.5 C 450.833,903.5 450.833,916.5 449.5,929.5C 449.434,916.321 449.434,903.321 449.5,890.5 Z"/></g>
<g><path style="opacity:1" fill="#aecbce" d="M 440.5,928.5 C 439.515,924.366 439.182,920.032 439.5,915.5C 434.167,915.5 428.833,915.5 423.5,915.5C 423.817,919.702 423.483,923.702 422.5,927.5C 422.5,923.167 422.5,918.833 422.5,914.5C 428.5,914.5 434.5,914.5 440.5,914.5C 440.5,919.167 440.5,923.833 440.5,928.5 Z"/></g>
<g><path style="opacity:1" fill="#0d3c3c" d="M 569.5,888.5 C 572.167,888.5 574.833,888.5 577.5,888.5C 577.334,894.842 577.5,901.175 578,907.5C 582.79,901.041 587.957,894.874 593.5,889C 597.033,888.097 600.367,888.43 603.5,890C 598.877,896.292 593.877,902.292 588.5,908C 592,912.833 595.5,917.667 599,922.5C 601.22,925.54 602.72,928.873 603.5,932.5C 600.482,932.665 597.482,932.498 594.5,932C 590.277,926.776 586.444,921.276 583,915.5C 578.162,919.672 576.162,925.005 577,931.5C 574.534,932.788 572.034,932.788 569.5,931.5C 568.186,917.104 568.186,902.77 569.5,888.5 Z"/></g>
</svg>
