<?xml version="1.0" encoding="UTF-8"?>
<!DOCTYPE svg PUBLIC "-//W3C//DTD SVG 1.1//EN" "http://www.w3.org/Graphics/SVG/1.1/DTD/svg11.dtd">
<svg xmlns="http://www.w3.org/2000/svg" version="1.1" width="40px" height="40px" style="shape-rendering:geometricPrecision; text-rendering:geometricPrecision; image-rendering:optimizeQuality; fill-rule:evenodd; clip-rule:evenodd" xmlns:xlink="http://www.w3.org/1999/xlink">
<g><path style="opacity:1" fill="#05151c" d="M 15.5,-0.5 C 23.5,-0.5 31.5,-0.5 39.5,-0.5C 39.5,3.5 39.5,7.5 39.5,11.5C 35.7064,3.34596 29.2064,-0.32071 20,0.5C 17.9011,1.28652 15.7345,1.61986 13.5,1.5C 12.7611,1.63101 12.0944,1.46434 11.5,1C 13.0581,0.78997 14.3915,0.28997 15.5,-0.5 Z"/></g>
<g><path style="opacity:1" fill="#091621" d="M -0.5,-0.5 C 4.83333,-0.5 10.1667,-0.5 15.5,-0.5C 14.3915,0.28997 13.0581,0.78997 11.5,1C 12.0944,1.46434 12.7611,1.63101 13.5,1.5C 13.6107,2.11742 13.944,2.61742 14.5,3C 13.0577,3.37675 12.0577,4.21009 11.5,5.5C 9.41787,6.01614 7.08453,7.01614 4.5,8.5C 3.83195,10.9688 3.16528,13.3021 2.5,15.5C 1.39105,15.5569 0.391047,15.8902 -0.5,16.5C -0.5,10.8333 -0.5,5.16667 -0.5,-0.5 Z"/></g>
<g><path style="opacity:1" fill="#555752" d="M 22.5,6.5 C 21.6618,6.84171 21.3284,7.50838 21.5,8.5C 19.1667,8.5 16.8333,8.5 14.5,8.5C 14.8333,7.83333 15.1667,7.16667 15.5,6.5C 18.0046,2.70987 20.3379,2.70987 22.5,6.5 Z"/></g>
<g><path style="opacity:1" fill="#296e64" d="M 35.5,13.5 C 34.5,13.5 33.5,13.5 32.5,13.5C 32.6716,12.5084 32.3382,11.8417 31.5,11.5C 31.1667,10.5 30.5,9.83333 29.5,9.5C 27.0521,8.52693 24.3854,8.1936 21.5,8.5C 21.3284,7.50838 21.6618,6.84171 22.5,6.5C 25.5448,6.49205 28.5448,6.15872 31.5,5.5C 31.5,6.5 31.5,7.5 31.5,8.5C 32.8333,8.5 34.1667,8.5 35.5,8.5C 35.5,10.1667 35.5,11.8333 35.5,13.5 Z"/></g>
<g><path style="opacity:1" fill="#0d2429" d="M 39.5,11.5 C 39.5,14.5 39.5,17.5 39.5,20.5C 38.8333,20.5 38.5,20.8333 38.5,21.5C 38.1667,21.5 37.8333,21.5 37.5,21.5C 37.7128,18.5491 37.0461,15.8825 35.5,13.5C 35.5,11.8333 35.5,10.1667 35.5,8.5C 34.1667,8.5 32.8333,8.5 31.5,8.5C 31.5,7.5 31.5,6.5 31.5,5.5C 28.5448,6.15872 25.5448,6.49205 22.5,6.5C 20.3379,2.70987 18.0046,2.70987 15.5,6.5C 14.1667,6.16667 12.8333,5.83333 11.5,5.5C 12.0577,4.21009 13.0577,3.37675 14.5,3C 13.944,2.61742 13.6107,2.11742 13.5,1.5C 15.7345,1.61986 17.9011,1.28652 20,0.5C 29.2064,-0.32071 35.7064,3.34596 39.5,11.5 Z"/></g>
<g><path style="opacity:1" fill="#4e3343" d="M 11.5,5.5 C 12.8333,5.83333 14.1667,6.16667 15.5,6.5C 15.1667,7.16667 14.8333,7.83333 14.5,8.5C 11.509,8.16628 9.17571,9.16628 7.5,11.5C 6.54885,12.9187 6.21552,14.5853 6.5,16.5C 5.29542,18.1376 3.96209,18.4709 2.5,17.5C 2.5,16.8333 2.5,16.1667 2.5,15.5C 3.16528,13.3021 3.83195,10.9688 4.5,8.5C 7.08453,7.01614 9.41787,6.01614 11.5,5.5 Z"/></g>
<g><path style="opacity:1" fill="#d88074" d="M 14.5,8.5 C 16.8333,8.5 19.1667,8.5 21.5,8.5C 24.3854,8.1936 27.0521,8.52693 29.5,9.5C 26.4816,9.33537 23.4816,9.50204 20.5,10C 21.4158,10.2784 22.0825,10.7784 22.5,11.5C 20.5,11.5 18.5,11.5 16.5,11.5C 16.0831,10.8761 15.4164,10.5427 14.5,10.5C 12.4229,11.9371 10.0895,12.6038 7.5,12.5C 7.5,12.1667 7.5,11.8333 7.5,11.5C 9.17571,9.16628 11.509,8.16628 14.5,8.5 Z"/></g>
<g><path style="opacity:1" fill="#eb7056" d="M 29.5,9.5 C 30.5,9.83333 31.1667,10.5 31.5,11.5C 31.6495,12.552 31.4828,13.552 31,14.5C 30.31,13.2617 29.81,13.2617 29.5,14.5C 29.1667,14.5 28.8333,14.5 28.5,14.5C 27.089,12.461 25.089,11.461 22.5,11.5C 22.0825,10.7784 21.4158,10.2784 20.5,10C 23.4816,9.50204 26.4816,9.33537 29.5,9.5 Z"/></g>
<g><path style="opacity:1" fill="#e95b62" d="M 16.5,11.5 C 13.8333,12.1667 12.1667,13.8333 11.5,16.5C 10.8333,16.8333 10.1667,17.1667 9.5,17.5C 9.27917,14.9028 8.77917,14.9028 8,17.5C 7.50649,15.8659 7.33982,14.1992 7.5,12.5C 10.0895,12.6038 12.4229,11.9371 14.5,10.5C 15.4164,10.5427 16.0831,10.8761 16.5,11.5 Z"/></g>
<g><path style="opacity:1" fill="#5499b3" d="M 16.5,11.5 C 18.5,11.5 20.5,11.5 22.5,11.5C 25.089,11.461 27.089,12.461 28.5,14.5C 25.6146,14.1936 22.9479,14.5269 20.5,15.5C 19.4168,15.4606 18.4168,15.1272 17.5,14.5C 16.5159,17.4281 16.1826,20.4281 16.5,23.5C 15.834,20.6417 15.1674,17.6417 14.5,14.5C 13.6667,15.5 12.8333,16.5 12,17.5C 11.6012,17.2716 11.4346,16.9382 11.5,16.5C 12.1667,13.8333 13.8333,12.1667 16.5,11.5 Z"/></g>
<g><path style="opacity:1" fill="#9beaf4" d="M 20.5,15.5 C 21.9649,16.7368 23.6316,17.7368 25.5,18.5C 22.8333,20.1667 20.1667,21.8333 17.5,23.5C 17.1667,23.5 16.8333,23.5 16.5,23.5C 16.1826,20.4281 16.5159,17.4281 17.5,14.5C 18.4168,15.1272 19.4168,15.4606 20.5,15.5 Z"/></g>
<g><path style="opacity:1" fill="#29647f" d="M 28.5,14.5 C 28.8333,14.5 29.1667,14.5 29.5,14.5C 29.5,15.8333 29.5,17.1667 29.5,18.5C 28.0387,17.3143 26.7054,17.3143 25.5,18.5C 23.6316,17.7368 21.9649,16.7368 20.5,15.5C 22.9479,14.5269 25.6146,14.1936 28.5,14.5 Z"/></g>
<g><path style="opacity:1" fill="#373c39" d="M 32.5,13.5 C 33.5,13.5 34.5,13.5 35.5,13.5C 37.0461,15.8825 37.7128,18.5491 37.5,21.5C 36.5041,21.4142 35.6708,21.7476 35,22.5C 34.9977,19.9488 34.1644,17.9488 32.5,16.5C 32.5,15.5 32.5,14.5 32.5,13.5 Z"/></g>
<g><path style="opacity:1" fill="#2e4e6e" d="M 16.5,23.5 C 16.8333,23.5 17.1667,23.5 17.5,23.5C 16.4479,25.256 14.7812,25.9227 12.5,25.5C 10.6197,23.2446 9.61975,20.5779 9.5,17.5C 10.1667,17.1667 10.8333,16.8333 11.5,16.5C 11.4346,16.9382 11.6012,17.2716 12,17.5C 12.8333,16.5 13.6667,15.5 14.5,14.5C 15.1674,17.6417 15.834,20.6417 16.5,23.5 Z"/></g>
<g><path style="opacity:1" fill="#2f3855" d="M 29.5,18.5 C 27.5,20.5 25.5,22.5 23.5,24.5C 20.5794,24.1459 18.2461,25.1459 16.5,27.5C 15.5832,26.8728 14.5832,26.5394 13.5,26.5C 12.8333,26.5 12.5,26.1667 12.5,25.5C 14.7812,25.9227 16.4479,25.256 17.5,23.5C 20.1667,21.8333 22.8333,20.1667 25.5,18.5C 26.7054,17.3143 28.0387,17.3143 29.5,18.5 Z"/></g>
<g><path style="opacity:1" fill="#0a1021" d="M 2.5,15.5 C 2.5,16.1667 2.5,16.8333 2.5,17.5C 2.41423,18.4959 2.74756,19.3292 3.5,20C 2.83333,20.6667 2.16667,21.3333 1.5,22C 2.94372,24.775 4.27705,27.6084 5.5,30.5C 6.88031,33.5517 9.21365,35.7183 12.5,37C 21.6247,39.4526 29.4581,37.286 36,30.5C 37.9076,27.7935 38.741,24.7935 38.5,21.5C 38.5,20.8333 38.8333,20.5 39.5,20.5C 39.5,26.8333 39.5,33.1667 39.5,39.5C 26.1667,39.5 12.8333,39.5 -0.5,39.5C -0.5,31.8333 -0.5,24.1667 -0.5,16.5C 0.391047,15.8902 1.39105,15.5569 2.5,15.5 Z"/></g>
<g><path style="opacity:1" fill="#b82d3b" d="M 7.5,11.5 C 7.5,11.8333 7.5,12.1667 7.5,12.5C 7.33982,14.1992 7.50649,15.8659 8,17.5C 8.77917,14.9028 9.27917,14.9028 9.5,17.5C 9.61975,20.5779 10.6197,23.2446 12.5,25.5C 12.5,26.1667 12.8333,26.5 13.5,26.5C 12.0813,27.4511 10.4147,27.7845 8.5,27.5C 6.90891,24.0388 6.24225,20.3721 6.5,16.5C 6.21552,14.5853 6.54885,12.9187 7.5,11.5 Z"/></g>
<g><path style="opacity:1" fill="#b32928" d="M 31.5,11.5 C 32.3382,11.8417 32.6716,12.5084 32.5,13.5C 32.5,14.5 32.5,15.5 32.5,16.5C 32.5,19.5 32.5,22.5 32.5,25.5C 31.5,26.1667 30.5,26.8333 29.5,27.5C 26.4281,27.8174 23.4281,27.4841 20.5,26.5C 21.6016,25.8243 22.6016,25.1577 23.5,24.5C 25.5,22.5 27.5,20.5 29.5,18.5C 29.5,17.1667 29.5,15.8333 29.5,14.5C 29.81,13.2617 30.31,13.2617 31,14.5C 31.4828,13.552 31.6495,12.552 31.5,11.5 Z"/></g>
<g><path style="opacity:1" fill="#573237" d="M 32.5,16.5 C 34.1644,17.9488 34.9977,19.9488 35,22.5C 35.6708,21.7476 36.5041,21.4142 37.5,21.5C 36.6473,23.8927 34.9806,25.226 32.5,25.5C 32.5,22.5 32.5,19.5 32.5,16.5 Z"/></g>
<g><path style="opacity:1" fill="#8b1026" d="M 23.5,24.5 C 22.6016,25.1577 21.6016,25.8243 20.5,26.5C 23.4281,27.4841 26.4281,27.8174 29.5,27.5C 25.03,28.4861 20.3633,28.8195 15.5,28.5C 12.9407,28.8016 10.6074,28.4682 8.5,27.5C 10.4147,27.7845 12.0813,27.4511 13.5,26.5C 14.5832,26.5394 15.5832,26.8728 16.5,27.5C 18.2461,25.1459 20.5794,24.1459 23.5,24.5 Z"/></g>
<g><path style="opacity:1" fill="#5c203f" d="M 32.5,25.5 C 35.4721,29.2289 34.4721,31.2289 29.5,31.5C 29.3893,30.8826 29.056,30.3826 28.5,30C 23.9805,29.8247 19.6472,29.3247 15.5,28.5C 20.3633,28.8195 25.03,28.4861 29.5,27.5C 30.5,26.8333 31.5,26.1667 32.5,25.5 Z"/></g>
<g><path style="opacity:1" fill="#433a70" d="M 6.5,16.5 C 6.24225,20.3721 6.90891,24.0388 8.5,27.5C 10.6074,28.4682 12.9407,28.8016 15.5,28.5C 19.6472,29.3247 23.9805,29.8247 28.5,30C 29.056,30.3826 29.3893,30.8826 29.5,31.5C 27.1933,31.9863 25.0266,31.9863 23,31.5C 21.647,32.6853 20.4803,34.0186 19.5,35.5C 18.5791,33.244 16.9124,32.244 14.5,32.5C 13.9473,30.4482 12.9473,30.1148 11.5,31.5C 10.8501,31.8039 10.1835,32.1373 9.5,32.5C 8.37765,31.3698 7.04432,30.7031 5.5,30.5C 4.27705,27.6084 2.94372,24.775 1.5,22C 2.16667,21.3333 2.83333,20.6667 3.5,20C 2.74756,19.3292 2.41423,18.4959 2.5,17.5C 3.96209,18.4709 5.29542,18.1376 6.5,16.5 Z"/></g>
<g><path style="opacity:1" fill="#13192d" d="M 37.5,21.5 C 37.8333,21.5 38.1667,21.5 38.5,21.5C 38.741,24.7935 37.9076,27.7935 36,30.5C 29.4581,37.286 21.6247,39.4526 12.5,37C 9.21365,35.7183 6.88031,33.5517 5.5,30.5C 7.04432,30.7031 8.37765,31.3698 9.5,32.5C 10.1835,32.1373 10.8501,31.8039 11.5,31.5C 12.221,33.3818 13.221,33.7152 14.5,32.5C 16.9124,32.244 18.5791,33.244 19.5,35.5C 20.4803,34.0186 21.647,32.6853 23,31.5C 25.0266,31.9863 27.1933,31.9863 29.5,31.5C 34.4721,31.2289 35.4721,29.2289 32.5,25.5C 34.9806,25.226 36.6473,23.8927 37.5,21.5 Z"/></g>
<g><path style="opacity:1" fill="#8e3a9c" d="M 14.5,32.5 C 13.221,33.7152 12.221,33.3818 11.5,31.5C 12.9473,30.1148 13.9473,30.4482 14.5,32.5 Z"/></g>
</svg>
