<?xml version="1.0" standalone="no"?>
<!DOCTYPE svg PUBLIC "-//W3C//DTD SVG 20010904//EN"
 "http://www.w3.org/TR/2001/REC-SVG-20010904/DTD/svg10.dtd">
<svg version="1.0" xmlns="http://www.w3.org/2000/svg"
 width="120.000000pt" height="30.000000pt" viewBox="0 0 573.000000 170.000000"
 preserveAspectRatio="xMidYMid meet">

<g transform="translate(0.000000,170.000000) scale(0.100000,-0.100000)"
fill="#000000" stroke="none">
<path d="M1552 1258 c-12 -18 -33 -45 -49 -60 -28 -26 -185 -94 -273 -118 -75
-20 -117 -46 -129 -81 -6 -18 -11 -77 -11 -132 l0 -101 28 26 c42 40 97 63
238 103 82 23 144 46 172 65 23 16 42 26 42 21 0 -5 -18 -31 -40 -59 -35 -43
-52 -55 -129 -85 -49 -20 -133 -47 -186 -61 -54 -13 -102 -31 -106 -38 -5 -7
-9 -89 -9 -181 l0 -168 33 24 c53 40 91 56 189 79 119 27 166 47 218 94 l41
37 -3 334 c-2 183 -4 333 -5 333 -1 0 -10 -15 -21 -32z"/>
<path d="M925 1108 c-26 -88 -29 -123 -12 -149 14 -21 14 -26 1 -43 -8 -11
-14 -31 -14 -45 0 -26 0 -25 23 6 12 18 26 33 31 33 5 0 22 -15 37 -32 l28
-33 -5 70 c-6 73 -47 230 -64 240 -5 3 -16 -18 -25 -47z"/>
<path d="M1994 1124 c13 -13 16 -44 16 -188 0 -116 -4 -176 -11 -183 -9 -9 23
-13 129 -15 l142 -3 15 44 c14 42 14 43 -3 29 -35 -31 -82 -48 -135 -48 -87 0
-91 8 -88 198 l1 52 33 0 c18 0 50 -9 71 -19 l37 -19 -7 31 c-3 18 -7 33 -8
34 0 1 -22 -3 -48 -9 -64 -15 -78 -7 -78 42 0 35 4 42 26 50 47 18 117 -2 165
-47 l27 -24 -11 45 -10 46 -139 0 c-127 0 -138 -1 -124 -16z"/>
<path d="M2376 1116 c22 -35 17 -352 -6 -366 -21 -14 211 -13 247 1 39 14 83
57 100 97 15 35 16 139 1 148 -5 3 -6 9 -4 13 3 4 -3 17 -12 27 -10 10 -21 27
-25 37 -4 10 -32 29 -62 42 -47 21 -71 25 -156 25 l-99 0 16 -24z m195 -12
c37 -19 85 -76 99 -120 14 -40 8 -114 -11 -157 -16 -35 -83 -67 -141 -67 -75
0 -78 7 -78 190 0 141 2 160 18 169 20 12 75 5 113 -15z"/>
<path d="M2814 1124 c19 -18 19 -34 5 -179 -10 -98 -10 -115 5 -143 23 -44 55
-62 119 -69 67 -7 115 8 153 48 31 33 30 18 24 256 -1 35 1 72 5 83 5 17 2 20
-26 20 -24 0 -29 -3 -21 -12 5 -7 15 -71 22 -143 15 -178 3 -206 -101 -230
-29 -7 -90 15 -116 40 -12 13 -16 40 -17 132 0 63 2 117 6 119 4 3 7 15 6 27
-1 12 2 32 6 45 7 21 5 22 -39 22 -42 0 -45 -1 -31 -16z"/>
<path d="M3234 1118 c13 -18 16 -54 16 -188 0 -116 -4 -170 -12 -178 -9 -9 -5
-12 20 -12 29 0 32 2 22 19 -11 22 -14 341 -2 341 4 0 25 -31 46 -68 22 -37
50 -82 62 -100 l22 -34 63 103 c36 58 65 96 67 88 3 -8 8 -16 12 -19 3 -3 4
-78 1 -168 l-6 -162 44 0 c38 0 42 2 30 16 -14 17 -20 321 -7 362 7 21 5 22
-42 22 -36 0 -48 -3 -44 -13 2 -7 -7 -29 -20 -48 -14 -18 -33 -49 -43 -66 -9
-18 -23 -33 -31 -33 -14 0 -42 24 -43 37 -1 4 -13 34 -27 65 l-27 57 -58 1
c-58 0 -58 0 -43 -22z"/>
<path d="M3730 1120 c7 -13 10 -85 8 -200 l-3 -180 38 0 c20 0 37 5 37 10 0 6
-3 10 -7 10 -11 0 -10 352 0 368 6 9 -3 12 -38 12 -43 0 -45 -1 -35 -20z"/>
<path d="M3920 1121 c6 -11 10 -89 10 -181 0 -92 -4 -170 -10 -181 -10 -17 -7
-19 19 -19 29 0 30 2 21 26 -12 29 -14 334 -2 334 6 0 122 -94 205 -167 35
-31 37 -35 38 -101 1 -39 -2 -75 -5 -81 -5 -7 4 -11 25 -11 26 0 29 2 20 14
-9 10 -11 68 -9 200 l3 186 -29 0 c-21 0 -26 -3 -18 -12 13 -17 22 -127 11
-134 -10 -6 -65 36 -137 104 -41 39 -49 42 -99 42 -50 0 -53 -1 -43 -19z"/>
<path d="M4350 1121 c15 -29 13 -354 -2 -369 -9 -9 13 -12 103 -12 162 1 219
31 247 131 21 79 -3 158 -67 217 -45 42 -85 52 -199 52 -89 0 -92 -1 -82 -19z
m155 -2 c86 -24 145 -101 145 -189 0 -115 -41 -162 -146 -168 -90 -6 -94 3
-94 188 0 147 3 162 30 173 22 8 21 8 65 -4z"/>
<path d="M4907 1121 c3 -11 -3 -35 -12 -54 -9 -20 -31 -79 -49 -131 -19 -53
-37 -101 -43 -108 -5 -7 -16 -30 -26 -50 l-17 -38 35 0 c32 0 34 2 23 19 -9
15 -6 33 16 95 l28 77 32 -7 c91 -19 161 -88 154 -149 l-4 -35 44 0 c34 0 42
3 35 13 -6 6 -25 56 -43 110 -18 53 -36 97 -39 97 -3 0 -7 12 -8 27 0 15 -6
29 -12 31 -5 2 -7 10 -4 18 3 8 1 14 -3 14 -8 0 -12 17 -17 73 -1 13 -11 17
-48 17 -41 0 -47 -2 -42 -19z m33 -35 c0 -8 3 -16 8 -18 8 -4 42 -91 49 -130
6 -31 -1 -34 -37 -13 -14 8 -34 15 -45 15 -45 1 -47 13 -18 88 26 68 43 90 43
58z"/>
<path d="M5198 1127 c7 -7 12 -83 13 -191 2 -144 -1 -180 -12 -187 -9 -6 4 -9
38 -9 l52 0 -15 28 c-16 32 -20 304 -4 346 9 26 9 26 -36 26 -37 0 -44 -3 -36
-13z"/>
<path d="M350 766 l0 -172 28 -27 c37 -35 85 -54 200 -77 98 -20 219 -70 229
-96 3 -8 10 -14 15 -14 8 0 6 281 -3 327 -6 33 -49 55 -150 75 -120 23 -228
69 -281 120 l-38 35 0 -171z"/>
<path d="M813 835 c0 -38 2 -53 4 -32 2 20 2 52 0 70 -2 17 -4 1 -4 -38z"/>
<path d="M1530 555 c-65 -66 -159 -117 -292 -159 -68 -22 -119 -43 -122 -52
-3 -9 -6 -47 -6 -85 l0 -69 110 55 c199 100 317 180 346 236 9 18 14 48 12 75
l-3 45 -45 -46z"/>
<path d="M352 517 c5 -67 26 -94 122 -160 46 -31 332 -177 348 -177 2 0 2 36
0 81 -3 78 -4 81 -35 99 -17 11 -56 25 -87 32 -134 29 -276 98 -334 162 -18
21 -19 20 -14 -37z"/>
</g>
</svg>
